<svg width="7405" height="8385" viewBox="0 0 7405 8385" fill="none" xmlns="http://www.w3.org/2000/svg">
<path d="M3409.44 0.5H3412.85H3678.53H3681.94V14.1306H3685.34H3773.9H3777.31V27.7612H3780.72H3828.4H3831.81V41.3918H3835.21H3882.9H3886.31V55.0223H3889.71H3923.78H3927.18V68.6529H3930.59H3964.65H3968.06V82.2835H3971.46H4005.52H4008.93V95.9141H4036.18V109.545H4063.43V123.175H4090.68V136.806C4094.09 136.806 4102.03 136.806 4114.52 136.806H4117.93V150.436H4145.18V164.067H4158.8V177.698H4186.05V191.328H4199.68V204.959H4213.3V218.589H4226.93V232.22H4254.18V245.851H4267.8V259.481H4281.43V273.112H4295.05V300.373H4308.68V314.003H4322.3V327.634H4335.93V341.265H4349.55V368.526H4363.18V382.156H4376.8V395.787H4390.43V423.048H4404.05V436.679H4431.3V450.309H4434.71H4468.77H4472.17V463.94H4475.58H4509.64H4513.05V477.57H4516.46H4550.52H4553.92V491.201H4557.33H4591.39H4594.8V504.832H4598.2H4632.27H4635.67V518.462H4639.08H4700.39H4703.8V532.093H4707.2H4754.89H4758.3V545.723H4761.7H4823.01H4826.42V559.354H4829.83H4877.51H4880.92V572.985H4884.33H4932.01H4935.42V586.615H4949.04V600.246H4962.67V627.507H4976.29V630.915V692.252V695.66H4962.67V699.068V774.036V777.443H4949.04V780.851V814.927V818.335H4935.42V821.743V855.819V859.227H4921.79V886.488H4908.17V900.119H4894.54V927.38H4880.92V941.01H4867.29V954.641H4853.67V981.902H4840.04V995.533H4826.42V1009.16H4812.79V1022.79H4799.17V1036.42H4785.55V1050.06H4758.3V1063.69H4744.67V1077.32H4731.05V1090.95H4703.8V1104.58H4690.17V1118.21H4662.92V1131.84H4635.67V1145.47H4608.42V1159.1H4581.17V1172.73H4577.77H4543.7H4540.3V1186.36H4536.89H4502.83H4499.42V1199.99H4496.02H4461.96H4458.55V1213.62H4455.14H4421.08H4417.68V1227.25H4414.27H4366.58H4363.18V1240.88H4359.77H4325.71H4322.3V1254.51H4318.9H4284.83H4281.43V1268.14H4278.02H4243.96H4240.55V1281.78C4237.15 1281.78 4229.2 1281.78 4216.71 1281.78H4213.3V1295.41H4186.05V1309.04H4172.43V1322.67H4145.18V1336.3H4131.55V1349.93H4117.93V1363.56H4104.3V1377.19H4090.68V1390.82H4077.06V1404.45H4063.43V1418.08H4049.81V1431.71H4036.18V1458.97H4022.56V1472.6H4008.93V1499.86H3995.31V1527.13H3981.68V1530.53V1564.61V1568.02H3968.06V1571.43V1605.5V1608.91H3954.43V1612.32V1660.02V1663.43H3940.81V1666.84V1919V1922.41H3954.43V1925.82V2000.79V2004.2H3968.06V2007.6V2055.31V2058.72H3981.68V2062.13V2109.83V2113.24H3995.31V2140.5H4008.93V2143.91V2177.99V2181.39H4022.56V2208.65H4036.18V2235.92H4049.81V2263.18H4063.43V2290.44H4077.06C4077.06 2293.85 4077.06 2301.8 4077.06 2314.29V2317.7H4090.68V2344.96H4104.3V2358.59H4117.93C4117.93 2362 4117.93 2369.95 4117.93 2382.44V2385.85H4131.55V2413.11H4145.18V2426.74H4158.8V2454.01H4172.43V2481.27H4186.05V2508.53H4199.68V2535.79H4213.3C4213.3 2539.2 4213.3 2547.15 4213.3 2559.64V2563.05H4226.93V2590.31H4240.55V2603.94H4254.18V2631.2H4267.8V2658.46H4281.43V2685.73H4295.05V2712.99H4308.68V2716.39V2750.47V2753.88H4322.3V2781.14H4335.93V2784.55V2818.62V2822.03H4349.55V2849.29H4363.18V2876.55H4376.8V2879.96V2914.04V2917.45H4390.43V2920.85V2954.93V2958.34H4404.05V2961.74V3009.45V3012.86H4417.68V3016.27V3063.97V3067.38H4431.3V3070.79V3118.5V3121.9H4444.93V3125.31V3173.02V3176.43H4458.55V3179.83V3268.43V3271.84H4472.17V3275.25V3377.48V3380.89H4485.8V3384.29V4181.68V4185.09H4472.17V4188.5V4263.47V4266.87H4458.55V4270.28V4317.99V4321.4H4444.93V4348.66H4431.3V4352.06V4386.14V4389.55H4417.68V4392.96V4427.03V4430.44H4404.05V4457.7H4390.43C4390.43 4461.11 4390.43 4469.06 4390.43 4481.56V4484.96H4376.8V4512.22H4363.18V4525.85H4349.55V4553.12H4335.93V4566.75H4322.3V4594.01H4308.68V4607.64H4295.05V4634.9H4281.43V4648.53H4267.8V4662.16H4254.18V4689.42H4240.55V4703.05H4226.93V4716.68H4213.3V4730.31H4199.68V4757.57H4186.05V4771.21H4172.43V4784.84H4158.8V4798.47H4145.18V4812.1H4131.55V4825.73H4117.93V4839.36H4104.3V4852.99H4090.68V4866.62H4077.06V4880.25H4063.43V4893.88H4049.81V4921.14H4036.18V4934.77H4022.56V4948.4H4008.93V4962.03H3995.31V4975.66H3981.68V4989.29H3968.06V5016.56H3954.43V5030.19H3940.81V5043.82H3927.18V5071.08H3913.56V5084.71H3899.93V5111.97H3886.31V5139.23H3872.68V5152.86H3859.06V5180.12H3845.43V5207.38H3831.81V5234.65H3818.18V5261.91H3804.56V5265.31V5299.39V5302.8H3790.93V5330.06H3777.31V5333.47V5367.54V5370.95H3763.68V5374.36V5408.44V5411.84H3750.06V5415.25V5449.33V5452.73H3736.43V5456.14V5503.85V5507.26H3722.81V5510.66V5558.37V5561.78H3709.19V5565.19V5612.89V5616.3H3695.56V5629.93H3681.94V5657.19H3654.69V5670.82H3651.28H3603.59H3600.19V5657.19H3572.94V5643.56H3559.31V5640.15V5606.08V5602.67H3545.69V5599.26V5019.96V5016.56H3559.31V5013.15V4951.81V4948.4H3572.94V4945V4897.29V4893.88H3586.56V4890.47V4856.4V4852.99H3600.19V4825.73H3613.81V4798.47H3627.44C3627.44 4795.06 3627.44 4787.11 3627.44 4774.61V4771.21H3641.06V4743.94H3654.69V4730.31H3668.31C3668.31 4726.91 3668.31 4718.95 3668.31 4706.46V4703.05H3681.94V4675.79H3695.56V4662.16H3709.19V4648.53H3722.81V4621.27H3736.43V4607.64H3750.06C3750.06 4604.23 3750.06 4596.28 3750.06 4583.78V4580.38H3763.68V4553.12H3777.31V4539.48H3790.93C3790.93 4536.08 3790.93 4528.13 3790.93 4515.63V4512.22H3804.56V4484.96H3818.18V4471.33H3831.81V4444.07H3845.43V4416.81H3859.06V4389.55H3872.68V4362.29H3886.31V4335.03H3899.93V4307.77H3913.56V4304.36V4270.28V4266.87H3927.18V4263.47V4229.39V4225.98H3940.81V4222.57V4188.5V4185.09H3954.43V4181.68V4120.34V4116.94H3968.06V4113.53V4038.56V4035.15H3981.68V4031.75V3874.99V3871.59H3968.06V3868.18V3765.95V3762.54H3954.43V3759.13V3697.8V3694.39H3940.81V3690.98V3643.27V3639.87H3927.18V3636.46V3602.38V3598.97H3913.56V3595.57V3561.49V3558.08H3899.93V3554.68V3520.6V3517.19H3886.31V3489.93H3872.68V3462.67H3859.06V3459.26V3425.18V3421.78H3845.43V3394.52H3831.81V3367.25H3818.18C3818.18 3363.85 3818.18 3355.9 3818.18 3343.4V3339.99H3804.56V3312.73H3790.93V3299.1H3777.31V3271.84H3763.68C3763.68 3268.43 3763.68 3260.48 3763.68 3247.99V3244.58H3750.06V3217.32H3736.43V3203.69H3722.81V3176.43H3709.19V3162.8H3695.56C3695.56 3159.39 3695.56 3151.44 3695.56 3138.94V3135.53H3681.94V3108.27H3668.31V3094.64H3654.69V3067.38H3641.06V3053.75H3627.44V3026.49H3613.81V2999.23H3600.19V2971.97H3586.56V2944.71H3572.94V2917.45H3559.31V2914.04V2879.96V2876.55H3545.69V2873.15V1448.75V1445.34H3559.31V1431.71H3562.72H3610.41H3613.81V1418.08H3617.22H3651.28H3654.69V1404.45H3658.09H3692.15H3695.56V1390.82H3698.97H3733.03H3736.43V1377.19H3763.68V1363.56H3777.31V1349.93H3804.56V1336.3H3818.18V1322.67H3845.43V1309.04H3859.06V1295.41H3886.31V1281.78H3899.93V1268.14H3927.18V1254.51H3940.81V1240.88H3968.06V1227.25H3995.31V1213.62H4008.93V1199.99H4036.18V1186.36H4039.59H4073.65H4077.06V1172.73H4104.3V1159.1H4107.71H4141.77H4145.18V1145.47H4148.59H4182.65H4186.05V1131.84H4189.46H4223.52H4226.93V1118.21H4230.33H4291.65H4295.05V1104.58H4298.46H4346.15H4349.55V1090.95H4352.96H4414.27H4417.68V1077.32H4421.08H4468.77H4472.17V1063.69H4475.58H4509.64H4513.05V1050.06H4540.3V1036.42H4567.55V1022.79H4594.8V1009.16H4622.05V995.533C4625.45 995.533 4633.4 995.533 4645.89 995.533H4649.3V981.902H4676.55V968.272H4690.17V954.641H4703.8V941.01H4717.42V927.38H4731.05V913.749H4744.67V900.119H4758.3V886.488H4771.92V883.08V849.004V845.596H4744.67V831.966H4731.05V818.335H4703.8V804.705H4690.17V791.074H4676.55V777.443H4662.92V763.813H4649.3V750.182H4635.67V736.552H4622.05V722.921H4608.42V709.29H4594.8V682.029H4581.17V654.768H4567.55V627.507H4553.92V624.099V590.023V586.615H4540.3V572.985H4536.89H4489.21H4485.8V559.354H4482.39H4448.33H4444.93V545.723C4441.52 545.723 4433.57 545.723 4421.08 545.723H4417.68V532.093H4390.43V518.462H4376.8V504.832H4363.18V491.201H4335.93V477.57H4322.3V463.94H4308.68V450.309H4295.05V436.679H4281.43V423.048H4267.8V409.418H4254.18V395.787H4226.93V382.156H4213.3V368.526H4186.05V354.895H4172.43V341.265H4145.18V327.634H4117.93V314.003H4090.68V300.373H4063.43V286.742H4060.02H4025.96H4022.56V273.112H4019.15H3985.09H3981.68V259.481H3978.28H3944.21H3940.81V245.851H3937.4H3876.09H3872.68V232.22H3869.28H3589.97H3586.56V245.851H3583.16H3521.84H3518.44V259.481H3515.03H3467.34H3463.94V273.112H3460.53H3426.47H3423.06V286.742H3419.66H3385.6H3382.19V300.373C3378.78 300.373 3370.84 300.373 3358.35 300.373H3354.94V314.003H3327.69V327.634H3314.07V341.265H3286.82V354.895H3273.19V368.526H3245.94V382.156H3232.32V395.787H3218.69V409.418H3205.07V423.048H3191.44V436.679H3188.04H3044.98H3041.57V450.309H3038.16H2976.85H2973.45V463.94H2970.04H2935.98H2932.57V477.57H2905.32V491.201C2901.91 491.201 2893.97 491.201 2881.48 491.201H2878.07V504.832H2850.82V518.462H2837.2V532.093H2823.57V545.723H2809.95V559.354H2796.32V572.985H2782.7V586.615H2769.07V613.876H2755.45V627.507H2741.82V654.768H2728.2V658.176V692.252V695.66H2714.57V699.068V760.405V763.813H2700.95V767.22V828.558V831.966H2714.57V835.373V896.711V900.119H2728.2V927.38H2741.82V954.641H2755.45V981.902H2769.07V995.533H2782.7V1009.16H2796.32V1022.79H2809.95V1036.42H2823.57V1050.06H2837.2V1063.69H2850.82V1077.32H2878.07V1090.95H2905.32V1104.58H2932.57V1118.21H2959.82V1131.84H2963.23H2997.29H3000.69V1145.47H3014.32V1159.1H3027.94V1172.73H3041.57V1199.99H3055.19V1213.62H3068.82V1240.88H3082.44V1254.51H3096.07V1268.14H3109.69V1281.78H3123.32V1295.41H3136.94V1309.04H3150.57V1322.67H3164.19V1336.3H3177.82V1349.93H3191.44V1363.56H3218.69V1377.19H3232.32V1390.82H3259.57V1404.45H3286.82V1418.08H3314.07V1431.71H3327.69V1435.12V2873.15V2876.55H3314.07V2879.96V2914.04V2917.45H3300.44V2944.71H3286.82V2971.97H3273.19V2999.23H3259.57C3259.57 3002.64 3259.57 3010.59 3259.57 3023.08V3026.49H3245.94V3053.75H3232.32V3067.38H3218.69V3094.64H3205.07V3121.9H3191.44V3135.53H3177.82C3177.82 3138.94 3177.82 3146.89 3177.82 3159.39V3162.8H3164.19V3190.06H3150.57V3203.69H3136.94V3230.95H3123.32V3244.58H3109.69V3271.84H3096.07V3299.1H3082.44V3326.36H3068.82V3353.62H3055.19V3380.89H3041.57V3408.15H3027.94V3435.41H3014.32V3462.67H3000.69V3489.93H2987.07V3493.34V3527.41V3530.82H2973.45V3558.08H2959.82V3561.49V3595.57V3598.97H2946.2V3602.38V3650.09V3653.5H2932.57V3656.9V3690.98V3694.39H2918.95V3697.8V3759.13V3762.54H2905.32V3765.95V3881.81V3885.22H2891.7V3888.62V3990.85V3994.26H2905.32V3997.67V4099.9V4103.31H2918.95V4106.71V4168.05V4171.46H2932.57V4174.87V4222.57V4225.98H2946.2V4229.39V4263.47V4266.87H2959.82V4294.13H2973.45V4297.54V4331.62V4335.03H2987.07V4362.29H3000.69V4389.55H3014.32V4416.81H3027.94C3027.94 4420.22 3027.94 4428.17 3027.94 4440.66V4444.07H3041.57V4471.33H3055.19V4484.96H3068.82C3068.82 4488.37 3068.82 4496.32 3068.82 4508.82V4512.22H3082.44V4539.48H3096.07V4553.12H3109.69V4580.38H3123.32V4594.01H3136.94V4607.64H3150.57C3150.57 4611.05 3150.57 4619 3150.57 4631.49V4634.9H3164.19V4662.16H3177.82V4675.79H3191.44C3191.44 4679.2 3191.44 4687.15 3191.44 4699.64V4703.05H3205.07V4730.31H3218.69V4743.94H3232.32V4771.21H3245.94V4798.47H3259.57V4825.73H3273.19V4852.99H3286.82V4856.4V4890.47V4893.88H3300.44V4897.29V4945V4948.4H3314.07V4951.81V5013.15V5016.56H3327.69V5019.96V5599.26V5602.67H3314.07V5606.08V5640.15V5643.56H3300.44V5657.19H3273.19V5670.82H3269.78H3222.1H3218.69V5657.19H3191.44V5643.56H3177.82V5616.3H3164.19V5612.89V5565.19V5561.78H3150.57V5558.37V5524.29V5520.89H3136.94V5517.48V5469.77V5466.36H3123.32V5462.96V5428.88V5425.47H3109.69V5422.07V5387.99V5384.58H3096.07V5381.17V5347.1V5343.69H3082.44V5340.28V5306.21V5302.8H3068.82V5275.54H3055.19V5248.28H3041.57V5221.01H3027.94V5193.75H3014.32V5166.49H3000.69C3000.69 5163.08 3000.69 5155.13 3000.69 5142.64V5139.23H2987.07V5111.97H2973.45V5098.34H2959.82V5071.08H2946.2V5057.45H2932.57V5030.19H2918.95V5016.56H2905.32V5002.92H2891.7V4989.29H2878.07V4962.03H2864.45V4948.4H2850.82V4934.77H2837.2V4921.14H2823.57V4907.51H2809.95V4893.88H2796.32V4880.25H2782.7V4866.62H2769.07V4839.36H2755.45V4825.73H2741.82V4812.1H2728.2V4798.47H2714.57V4784.84H2700.95V4771.21H2687.32V4757.57H2673.7V4743.94H2660.07V4730.31H2646.45V4716.68H2632.82V4689.42H2619.2V4675.79H2605.58V4662.16H2591.95V4634.9H2578.33V4621.27H2564.7V4594.01H2551.08V4580.38H2537.45V4553.12H2523.83V4539.48H2510.2V4512.22H2496.58V4484.96H2482.95V4457.7H2469.33V4430.44H2455.7V4403.18H2442.08V4399.77V4365.69V4362.29H2428.45V4358.88V4324.8V4321.4H2414.83V4317.99V4270.28V4266.87H2401.2V4263.47V4202.13V4198.72H2387.58V4195.31V3506.97V3503.56H2401.2V3500.15V3397.92V3394.52H2414.83V3391.11V3316.14V3312.73H2428.45V3309.32V3247.99V3244.58H2442.08V3241.17V3193.46V3190.06H2455.7V3186.65V3138.94V3135.53H2469.33V3132.13V3070.79V3067.38H2482.95V3063.97V3016.27V3012.86H2496.58V3009.45V2961.74V2958.34H2510.2V2954.93V2920.85V2917.45H2523.83V2914.04V2866.33V2862.92H2537.45V2859.52V2825.44V2822.03H2551.08V2818.62V2770.92V2767.51H2564.7V2764.1V2716.39V2712.99H2578.33V2709.58V2661.87V2658.46H2591.95V2655.06V2607.35V2603.94H2605.58V2600.53V2539.2V2535.79H2619.2V2532.38V2484.67V2481.27H2632.82V2477.86V2416.52V2413.11H2646.45V2409.71V2334.74V2331.33H2660.07V2327.92V2239.32V2235.92H2673.7V2232.51V2103.02V2099.61H2687.32V2096.2V1871.3V1867.89H2700.95V1864.48V1666.84V1663.43H2687.32V1660.02V1476.01V1472.6H2673.7V1469.2V1353.34V1349.93H2660.07V1346.52V1271.55V1268.14H2646.45V1264.74V1203.4V1199.99H2632.82V1196.58V1148.88V1145.47H2619.2V1142.06V1080.72V1077.32H2605.58V1073.91V1026.2V1022.79H2591.95V1019.39V944.418V941.01H2578.33V937.603V685.437V682.029H2591.95V678.622V617.284V613.876H2605.58V610.469V576.392V572.985H2619.2V569.577V535.5V532.093H2632.82V504.832H2646.45V477.57H2660.07V450.309H2673.7C2673.7 446.902 2673.7 438.951 2673.7 426.456V423.048H2687.32V395.787H2700.95V382.156H2714.57V354.895H2728.2V341.265H2741.82V327.634H2755.45V314.003H2769.07V300.373H2782.7V286.742H2796.32V273.112H2809.95V259.481H2823.57V245.851H2837.2V232.22H2850.82V218.589H2864.45V204.959H2891.7V191.328H2905.32V177.698H2918.95V164.067H2946.2V150.436H2959.82V136.806H2987.07V123.175H3014.32V109.545H3041.57V95.9141H3044.98H3079.04H3082.44V82.2835H3109.69V68.6529H3113.1H3147.16H3150.57V55.0223H3153.97H3188.04H3191.44V41.3918H3194.85H3242.54H3245.94V27.7612H3249.35H3297.03H3300.44V14.1306H3303.85H3406.03H3409.44V0.5Z" fill="#182E47" stroke="#182E47"/>
<path d="M3899.79 395.63H3903.19H3978.01H3981.41V409.261H3984.81H4018.82H4022.22V422.892H4049.42V436.522H4063.02V450.153H4076.63V463.783H4090.23V477.414H4103.83V491.044H4117.43V494.452V528.529V531.936H4131.04V535.344V623.943V627.35H4117.43C4117.43 630.758 4117.43 638.709 4117.43 651.204V654.612H4103.83V681.873H4090.23V695.503H4076.63V709.134H4063.02V722.764C4059.62 722.764 4051.69 722.764 4039.22 722.764H4035.82V736.395H4008.61V750.026H4005.21H3889.59H3886.19V736.395C3882.79 736.395 3874.85 736.395 3862.39 736.395H3858.98V722.764H3831.78V709.134H3818.18V695.503H3804.57V681.873H3790.97V668.242H3777.37V640.981H3763.77V637.573V589.866V586.459H3750.16V559.197H3763.77V555.79V508.083V504.675H3777.37V477.414H3790.97V463.783H3804.57V450.153H3818.18V436.522H3831.78V422.892H3858.98V409.261H3862.39H3896.39H3899.79V395.63Z" fill="#182E47" stroke="#182E47"/>
<path d="M3056.02 532.093H3083.29V545.728H3086.7H3148.06H3151.47V559.363H3178.74V572.998H3192.37V586.633H3206.01V600.267H3219.64V613.902H3233.28V641.172H3246.91V654.807H3260.55V682.077H3274.18V685.486V733.208V736.617H3287.82V740.026V828.653V832.061H3274.18V835.47V869.557V872.966H3260.55C3260.55 876.375 3260.55 884.329 3260.55 896.827V900.236H3246.91V927.506H3233.28V941.141H3219.64V954.776H3206.01V968.411H3192.37V982.046H3165.1V995.681H3151.47V1009.32H3148.06H3113.97H3110.56V1022.95H3107.16H2977.62H2974.22V1009.32H2970.81H2936.72H2933.31V995.681C2929.9 995.681 2921.95 995.681 2909.45 995.681H2906.04V982.046H2878.77V968.411H2865.14V954.776H2851.5V941.141H2837.87V913.871H2824.23V886.601H2810.6V883.192V849.105V845.696H2796.96V842.288V740.026V736.617H2810.6V733.208V699.121V695.712H2824.23V668.442H2837.87V654.807H2851.5V641.172H2865.14V613.902H2892.41V600.267H2906.04V586.633H2919.68V572.998H2946.95V559.363H2950.35H2984.44H2987.85V545.728H2991.26H3052.62H3056.02V532.093Z" fill="#182E47" stroke="#182E47"/>
<path d="M2413.81 4731.88H2427.44V4759.13H2441.08V4786.39H2454.71V4813.64H2468.35C2468.35 4817.05 2468.35 4824.99 2468.35 4837.49V4840.89H2481.98V4868.14H2495.62V4881.77H2509.25V4909.02H2522.88V4922.65H2536.52V4949.9H2550.15V4963.53H2563.79V4977.16H2577.42V4990.78H2591.06V5018.04H2604.69V5031.66H2618.33V5045.29H2631.96V5058.92H2645.6V5072.54H2659.23V5086.17H2672.86V5099.8H2686.5V5113.42H2700.13V5127.05H2713.77V5140.67H2727.4V5167.93H2741.04V5181.55H2754.67V5195.18H2768.31V5208.81H2781.94V5222.43H2795.57V5249.69H2809.21V5263.31H2822.84V5276.94H2836.48V5290.57H2850.11V5317.82H2863.75V5331.45H2877.38V5345.07H2891.02V5372.33H2904.65V5385.95H2918.29V5399.58H2931.92V5426.83H2945.55C2945.55 5430.24 2945.55 5438.19 2945.55 5450.68V5454.08H2959.19V5481.34H2972.82V5494.96H2986.46C2986.46 5498.37 2986.46 5506.32 2986.46 5518.81V5522.22H3000.09V5549.47H3013.73V5563.1H3027.36V5590.35H3041V5617.6H3054.63V5644.85H3068.27V5672.11H3081.9V5699.36H3095.53V5726.61H3109.17V5753.87H3122.8V5781.12H3136.44V5808.37H3150.07V5811.78V5845.85V5849.25H3163.71V5876.51H3177.34V5879.91V5913.98V5917.38H3190.98V5920.79V5968.48V5971.89H3204.61V5975.3V6022.99V6026.4H3218.24V6029.8V6077.5V6080.9H3231.88V6084.31V6172.88V6176.29H3245.51V6179.69V6336.4V6339.81H3259.15V6343.21V6772.45V6775.85H3272.78V6779.26V7331.13V7334.54H3276.19H3596.6H3600.01V7320.91H3613.65V7317.51V6493.1V6489.7H3627.28V6486.29V6166.07V6162.66H3640.91V6159.26V6070.68V6067.28H3654.55V6063.87V6002.55V5999.14H3668.18V5995.74V5961.67V5958.26H3681.82V5954.86V5920.79V5917.38H3695.45V5913.98V5879.91V5876.51H3709.09V5849.25H3722.72V5845.85V5811.78V5808.37H3736.36V5781.12H3749.99V5753.87H3763.63V5750.46V5716.39V5712.99H3777.26V5685.73H3790.89C3790.89 5682.33 3790.89 5674.38 3790.89 5661.89V5658.48H3804.53V5631.23H3818.16V5617.6H3831.8V5590.35H3845.43V5563.1H3859.07C3859.07 5559.69 3859.07 5551.74 3859.07 5539.25V5535.84H3872.7V5508.59H3886.34V5494.96H3899.97C3899.97 5491.56 3899.97 5483.61 3899.97 5471.12V5467.71H3913.6V5440.46H3927.24V5426.83H3940.87V5399.58H3954.51V5385.95H3968.14V5358.7H3981.78V5345.07H3995.41V5317.82H4009.05V5304.19H4022.68V5290.57H4036.32V5263.31H4049.95V5249.69H4063.58V5236.06H4077.22V5222.43H4090.85V5208.81H4104.49V5195.18H4118.12V5181.55H4131.76V5154.3H4145.39V5140.67H4159.03V5127.05H4172.66V5113.42H4186.3V5099.8H4199.93V5086.17H4213.56V5072.54H4227.2V5058.92H4240.83V5031.66H4254.47V5018.04H4268.1V5004.41H4281.74V4990.78H4295.37V4977.16H4309.01V4949.9H4322.64V4936.28H4336.27V4922.65H4349.91V4895.4H4363.54V4881.77H4377.18V4854.52H4390.81V4840.89H4404.45V4813.64H4418.08V4786.39H4431.72V4759.13H4445.35V4731.88H4458.99V4735.29V4851.11V4854.52H4472.62V4857.92V4987.38V4990.78H4486.25V4994.19V5150.89V5154.3H4499.89V5157.71V5300.79V5304.19H4513.52V5307.6V5437.05V5440.46H4527.16V5443.86V5600.57V5603.98H4540.79V5607.38V5723.21V5726.61H4554.43V5730.02V5859.47V5862.88H4568.06V5866.29V5995.74V5999.14H4581.7V6002.55V6132V6135.41H4595.33V6138.82V6254.64V6258.05H4608.96V6261.45V6390.91V6394.31H4622.6V6397.72V6527.17V6530.58H4636.23V6533.98V6649.81V6653.22H4649.87V6656.62V6758.82V6762.23H4663.5V6765.63V6881.46V6884.87H4677.14V6888.27V7004.1V7007.5H4690.77V7010.91V7113.11V7116.52H4704.41V7119.92V7235.75V7239.15H4718.04V7242.56V7358.39V7361.79H4731.68V7365.2V7440.15V7443.55H4735.08H4823.71H4827.12V7457.18H4830.53H4919.15H4922.56V7470.81H4925.97H5028.23H5031.63V7484.43H5035.04H5110.03H5113.44V7498.06H5116.85H5191.84H5195.25V7511.68H5198.66H5273.65H5277.06V7525.31H5280.46H5355.45H5358.86V7538.94H5362.27H5437.26H5440.67V7552.56H5427.04V7566.19H5423.63H5375.91H5372.5V7579.82H5369.09H5321.37H5317.96V7593.44H5314.55H5266.83H5263.42V7607.07H5260.01H5212.29H5208.88V7620.7H5205.48H5171.39H5167.98V7634.32H5164.57H5116.85H5113.44V7647.95H5110.03H5075.95H5072.54V7661.58H5069.13H5035.04H5031.63V7675.2H5028.23H4994.14H4990.73V7688.83H4987.32H4953.24H4949.83V7702.46H4946.42H4912.33H4908.92V7716.08H4905.52H4871.43H4868.02V7729.71H4840.75V7743.33H4837.34H4803.26H4799.85V7756.96H4796.44H4762.35H4758.94V7770.59H4731.68V7784.21H4704.41V7797.84H4701H4666.91H4663.5V7811.47H4636.23V7825.09H4608.96V7838.72H4605.56H4571.47H4568.06V7852.35H4540.79V7865.97H4513.52V7879.6H4486.25V7893.23H4458.99V7906.85H4431.72V7920.48H4404.45V7934.11H4377.18V7947.73H4349.91V7961.36H4322.64V7974.99H4295.37V7988.61H4268.1V8002.24H4240.83V8015.86C4237.42 8015.86 4229.47 8015.86 4216.97 8015.86H4213.56V8029.49H4186.3V8043.12H4172.66V8056.74H4145.39V8070.37C4141.98 8070.37 4134.03 8070.37 4121.53 8070.37H4118.12V8084H4090.85V8097.62H4077.22V8111.25H4049.95V8124.88C4046.54 8124.88 4038.59 8124.88 4026.09 8124.88H4022.68V8138.5H3995.41V8152.13H3981.78V8165.76C3978.37 8165.76 3970.42 8165.76 3957.92 8165.76H3954.51V8179.38H3927.24V8193.01H3913.6V8206.64H3886.34V8220.26H3872.7V8233.89C3869.29 8233.89 3861.34 8233.89 3848.84 8233.89H3845.43V8247.52H3818.16V8261.14H3804.53V8274.77H3777.26V8288.39H3763.63V8302.02C3760.22 8302.02 3752.26 8302.02 3739.76 8302.02H3736.36V8315.65H3709.09V8329.27H3695.45V8342.9H3681.82V8356.53H3654.55V8370.15H3640.91V8383.78H3637.51H3.90863H0.5V8370.15H14.1345V8356.53H27.769V8342.9H41.4035V8329.27H68.6726V8315.65H82.3071V8302.02H109.576V8288.39H123.211V8274.77H150.48V8261.14H164.114V8247.52H191.383V8233.89H205.018V8220.26H232.287V8206.64H245.921V8193.01C249.33 8193.01 257.283 8193.01 269.782 8193.01H273.19V8179.38H300.459V8165.76H314.094V8152.13H341.363V8138.5C344.771 8138.5 352.725 8138.5 365.223 8138.5H368.632V8124.88H395.901V8111.25H409.535V8097.62H436.804V8084H464.073V8070.37H491.342V8056.74H518.611V8043.12H545.88V8029.49H573.149V8015.86H600.419V8002.24H627.688V7988.61H654.957V7974.99H658.365H692.451H695.86V7961.36H723.129V7947.73H750.398V7934.11H777.667V7920.48H781.076H815.162H818.571V7906.85H845.84V7893.23H849.248H883.335H886.743V7879.6H890.152H924.238H927.647V7865.97H954.916V7852.35H958.324H992.411H995.819V7838.72H999.228H1033.31H1036.72V7825.09H1040.13H1074.22H1077.63V7811.47H1081.04H1115.12H1118.53V7797.84H1145.8V7784.21H1149.21H1183.29H1186.7V7770.59H1190.11H1224.2H1227.61V7756.96H1231.01H1265.1H1268.51V7743.33H1271.92H1319.64H1323.05V7729.71H1326.46H1360.54H1363.95V7716.08H1367.36H1401.45H1404.85V7702.46H1408.26H1455.98H1459.39V7688.83H1462.8H1510.52H1513.93V7675.2H1517.34H1551.43H1554.83V7661.58H1558.24H1605.96H1609.37V7647.95H1612.78H1660.5H1663.91V7634.32H1667.32H1715.04H1718.45V7620.7H1721.86H1783.21H1786.62V7607.07H1790.03H1837.75H1841.16V7593.44H1844.57H1905.92H1909.33V7579.82H1912.74H1960.46H1963.87V7566.19H1967.28H2028.63H2032.04V7552.56H2035.45H2096.81H2100.21V7538.94H2103.62H2137.71H2141.12V7535.53V7460.59V7457.18H2154.75V7453.77V7310.69V7307.29H2168.39V7303.88V7174.43V7171.02H2182.02V7167.62V7065.42V7062.01H2195.66V7058.6V6915.53V6912.12H2209.29V6908.71V6779.26V6775.85H2222.93V6772.45V6656.62V6653.22H2236.56V6649.81V6533.98V6530.58H2250.19V6527.17V6397.72V6394.31H2263.83V6390.91V6261.45V6258.05H2277.46V6254.64V6125.19V6121.78H2291.1V6118.38V6002.55V5999.14H2304.73V5995.74V5879.91V5876.51H2318.37V5873.1V5757.27V5753.87H2332V5750.46V5593.76V5590.35H2345.64V5586.94V5457.49V5454.08H2359.27V5450.68V5307.6V5304.19H2372.91V5300.79V5157.71V5154.3H2386.54V5150.89V4994.19V4990.78H2400.17V4987.38V4857.92V4854.52H2413.81V4851.11V4735.29V4731.88Z" fill="#182E47" stroke="#182E47"/>
<path d="M5686.57 7622.03H5689.98H5751.32H5754.73V7635.66H5758.13H5819.47H5822.88V7649.29H5826.29H5874H5877.41V7662.92H5880.81H5942.15H5945.56V7676.55H5948.97H5996.68H6000.09V7690.17H6003.49H6037.57H6040.98V7703.8H6044.39H6092.1H6095.51V7717.43H6098.91H6132.99H6136.4V7731.06H6139.81H6173.88H6177.29V7744.68H6180.7H6228.41H6231.82V7758.31H6235.23H6269.3H6272.71V7771.94H6276.12H6310.2H6313.6V7785.57H6340.87V7799.19H6344.27H6378.35H6381.76V7812.82H6385.17H6419.25H6422.65V7826.45H6426.06H6460.14H6463.55V7840.08H6490.81V7853.71H6494.22H6528.3H6531.7V7867.33H6558.97V7880.96H6586.23V7894.59H6589.64H6623.71H6627.12V7908.22H6654.38V7921.84H6681.65V7935.47H6708.91V7949.1H6736.17V7962.73H6763.43V7976.36H6790.7V7989.98H6817.96V8003.61H6845.22V8017.24H6872.48V8030.87H6899.75V8044.49C6903.15 8044.49 6911.11 8044.49 6923.6 8044.49H6927.01V8058.12H6954.27V8071.75H6967.9V8085.38C6971.31 8085.38 6979.26 8085.38 6991.76 8085.38H6995.16V8099H7022.43V8112.63H7036.06V8126.26C7039.47 8126.26 7047.42 8126.26 7059.91 8126.26H7063.32V8139.89H7090.58V8153.52H7104.21V8167.14H7131.48V8180.77H7145.11V8194.4H7172.37V8208.03H7186V8221.65H7213.26V8235.28H7226.89V8248.91H7254.16V8262.54H7267.79V8276.17H7295.05V8289.79H7308.68V8303.42H7335.94V8317.05H7349.58V8330.68H7363.21V8344.3H7376.84V8357.93H7404.1V8371.56H7400.69H3904.29H3900.88V8357.93H3928.15V8344.3H3941.78V8330.68C3945.18 8330.68 3953.14 8330.68 3965.63 8330.68H3969.04V8317.05H3996.3V8303.42H4009.93V8289.79C4013.34 8289.79 4021.29 8289.79 4033.79 8289.79H4037.19V8276.17H4064.46V8262.54H4078.09V8248.91H4105.35V8235.28H4118.98V8221.65H4146.24V8208.03C4149.65 8208.03 4157.6 8208.03 4170.1 8208.03H4173.51V8194.4H4200.77V8180.77H4214.4V8167.14H4241.66V8153.52H4268.93V8139.89H4296.19V8126.26H4323.45V8112.63C4326.86 8112.63 4334.81 8112.63 4347.3 8112.63H4350.71V8099H4377.97V8085.38H4391.61V8071.75H4418.87V8058.12H4446.13V8044.49H4473.39V8030.87H4500.66V8017.24H4527.92V8003.61H4555.18V7989.98H4558.59H4592.67H4596.07V7976.36H4623.34V7962.73H4650.6V7949.1H4677.86V7935.47H4681.27H4715.35H4718.75V7921.84H4746.02V7908.22H4773.28V7894.59H4776.69H4810.77H4814.17V7880.96H4841.44V7867.33H4844.84H4878.92H4882.33V7853.71H4885.74H4919.81H4923.22V7840.08H4950.48V7826.45H4953.89H4987.97H4991.38V7812.82H4994.79H5028.86H5032.27V7799.19H5059.53V7785.57H5062.94H5097.02H5100.43V7771.94H5103.84H5137.91H5141.32V7758.31H5144.73H5192.44H5195.85V7744.68H5199.25H5233.33H5236.74V7731.06H5240.15H5274.23H5277.63V7717.43H5281.04H5328.75H5332.16V7703.8H5335.57H5369.64H5373.05V7690.17H5376.46H5424.17H5427.58V7676.55H5430.98H5478.69H5482.1V7662.92H5485.51H5533.22H5536.63V7649.29H5540.03H5601.37H5604.78V7635.66H5608.19H5683.16H5686.57V7622.03Z" fill="#D5652B" stroke="#182E47"/>
</svg>
