<svg width="15508" height="2517" viewBox="0 0 15508 2517" fill="none" xmlns="http://www.w3.org/2000/svg">
<path d="M1023.59 0.5H1024.61H1104.35H1105.37V4.59083H1106.4H1132.98H1134V8.68165H1135.02H1149.33H1150.35V12.7725H1151.38H1165.69H1166.71V16.8633H1167.73H1177.96H1178.98V20.9541H1180H1190.22H1191.25V25.045H1192.27H1202.49H1203.51V29.1358H1211.69V33.2266H1219.87V37.3174H1228.05V41.4083C1229.07 41.4083 1231.45 41.4083 1235.2 41.4083H1236.23V45.4991H1244.4V49.5899H1248.49V53.6808H1256.67V57.7716H1260.76V61.8624H1264.85V65.9532H1268.94V70.0441H1277.12V74.1349H1281.21V78.2257H1285.29V82.3165H1289.38V90.4982H1293.47V94.589H1297.56V98.6798H1301.65V102.771H1305.74V110.952H1309.83V115.043H1313.92V119.134H1318.01V127.316H1322.1V131.406H1330.27V135.497H1331.3H1341.52H1342.54V139.588H1343.56H1353.79H1354.81V143.679H1355.83H1366.05H1367.08V147.77H1368.1H1378.32H1379.34V151.861H1380.37H1390.59H1391.61V155.951H1392.63H1411.03H1412.06V160.042H1413.08H1427.39H1428.41V164.133H1429.43H1447.84H1448.86V168.224H1449.88H1464.19H1465.21V172.315H1466.24H1480.55H1481.57V176.406H1485.66V180.496H1489.75V188.678H1493.84V189.701V208.109V209.132H1489.75V210.155V232.654V233.677H1485.66V234.7V244.927V245.95H1481.57V246.972V257.199V258.222H1477.48V266.404H1473.39V270.495H1469.3V278.676H1465.21V282.767H1461.13V286.858H1457.04V295.04H1452.95V299.13H1448.86V303.221H1444.77V307.312H1440.68V311.403H1436.59V315.494H1428.41V319.585H1424.32V323.675H1420.23V327.766H1412.06V331.857H1407.97V335.948H1399.79V340.039H1391.61V344.129H1383.43V348.22H1375.25V352.311H1374.23H1364.01H1362.99V356.402H1361.96H1351.74H1350.72V360.493H1349.7H1339.47H1338.45V364.584H1337.43H1327.21H1326.19V368.674H1325.16H1310.85H1309.83V372.765H1308.81H1298.58H1297.56V376.856H1296.54H1286.32H1285.29V380.947H1284.27H1274.05H1273.03V385.038C1272 385.038 1269.62 385.038 1265.87 385.038H1264.85V389.129H1256.67V393.219H1252.58V397.31H1244.4V401.401H1240.31V405.492H1236.23V409.583H1232.14V413.674H1228.05V417.764H1223.96V421.855H1219.87V425.946H1215.78V430.037H1211.69V438.218H1207.6V442.309H1203.51V450.491H1199.42V458.673H1195.33V459.695V469.922V470.945H1191.25V471.968V482.195V483.218H1187.16V484.24V498.558V499.581H1183.07V500.604V576.284V577.307H1187.16V578.329V600.829V601.852H1191.25V602.874V617.192V618.215H1195.33V619.238V633.555V634.578H1199.42V642.76H1203.51V643.783V654.01V655.032H1207.6V663.214H1211.69V671.396H1215.78V679.577H1219.87V687.759H1223.96C1223.96 688.782 1223.96 691.168 1223.96 694.918V695.941H1228.05V704.122H1232.14V708.213H1236.23C1236.23 709.236 1236.23 711.622 1236.23 715.372V716.395H1240.31V724.576H1244.4V728.667H1248.49V736.849H1252.58V745.031H1256.67V753.212H1260.76V761.394H1264.85C1264.85 762.417 1264.85 764.803 1264.85 768.553V769.575H1268.94V777.757H1273.03V781.848H1277.12V790.03H1281.21V798.211H1285.29V806.393H1289.38V814.575H1293.47V815.597V825.824V826.847H1297.56V835.029H1301.65V836.051V846.278V847.301H1305.74V855.483H1309.83V863.664H1313.92V864.687V874.914V875.937H1318.01V876.96V887.187V888.209H1322.1V889.232V903.55V904.573H1326.19V905.595V919.913V920.936H1330.27V921.959V936.277V937.299H1334.36V938.322V952.64V953.663H1338.45V954.685V981.276V982.298H1342.54V983.321V1014V1015.03H1346.63V1016.05V1255.36V1256.38H1342.54V1257.41V1279.91V1280.93H1338.45V1281.95V1296.27V1297.29H1334.36V1305.47H1330.27V1306.5V1316.72V1317.75H1326.19V1318.77V1329V1330.02H1322.1V1338.2H1318.01C1318.01 1339.22 1318.01 1341.61 1318.01 1345.36V1346.38H1313.92V1354.56H1309.83V1358.65H1305.74V1366.84H1301.65V1370.93H1297.56V1379.11H1293.47V1383.2H1289.38V1391.38H1285.29V1395.47H1281.21V1399.56H1277.12V1407.74H1273.03V1411.84H1268.94V1415.93H1264.85V1420.02H1260.76V1428.2H1256.67V1432.29H1252.58V1436.38H1248.49V1440.47H1244.4V1444.56H1240.31V1448.65H1236.23V1452.74H1232.14V1456.83H1228.05V1460.93H1223.96V1465.02H1219.87V1469.11H1215.78V1477.29H1211.69V1481.38H1207.6V1485.47H1203.51V1489.56H1199.42V1493.65H1195.33V1497.74H1191.25V1505.92H1187.16V1510.02H1183.07V1514.11H1178.98V1522.29H1174.89V1526.38H1170.8V1534.56H1166.71V1542.74H1162.62V1546.83H1158.53V1555.01H1154.44V1563.2H1150.35V1571.38H1146.27V1579.56H1142.18V1580.58V1590.81V1591.83H1138.09V1600.01H1134V1601.04V1611.26V1612.29H1129.91V1613.31V1623.54V1624.56H1125.82V1625.58V1635.81V1636.83H1121.73V1637.85V1652.17V1653.19H1117.64V1654.22V1668.53V1669.56H1113.55V1670.58V1684.9V1685.92H1109.46V1690.01H1105.37V1698.19H1097.2V1702.28H1096.17H1081.86H1080.84V1698.19H1072.66V1694.1H1068.57V1693.08V1682.85V1681.83H1064.48V1680.81V1506.95V1505.92H1068.57V1504.9V1486.49V1485.47H1072.66V1484.45V1470.13V1469.11H1076.75V1468.08V1457.86V1456.83H1080.84V1448.65H1084.93V1440.47H1089.02C1089.02 1439.45 1089.02 1437.06 1089.02 1433.31V1432.29H1093.11V1424.11H1097.2V1420.02H1101.29C1101.29 1418.99 1101.29 1416.61 1101.29 1412.86V1411.84H1105.37V1403.65H1109.46V1399.56H1113.55V1395.47H1117.64V1387.29H1121.73V1383.2H1125.82C1125.82 1382.18 1125.82 1379.79 1125.82 1376.04V1375.02H1129.91V1366.84H1134V1362.75H1138.09C1138.09 1361.72 1138.09 1359.34 1138.09 1355.59V1354.56H1142.18V1346.38H1146.27V1342.29H1150.35V1334.11H1154.44V1325.93H1158.53V1317.75H1162.62V1309.56H1166.71V1301.38H1170.8V1293.2H1174.89V1292.18V1281.95V1280.93H1178.98V1279.91V1269.68V1268.66H1183.07V1267.63V1257.41V1256.38H1187.16V1255.36V1236.95V1235.93H1191.25V1234.91V1212.41V1211.38H1195.33V1210.36V1163.32V1162.29H1191.25V1161.27V1130.59V1129.57H1187.16V1128.55V1110.14V1109.11H1183.07V1108.09V1093.77V1092.75H1178.98V1091.73V1081.5V1080.48H1174.89V1079.46V1069.23V1068.21H1170.8V1067.18V1056.96V1055.93H1166.71V1047.75H1162.62V1039.57H1158.53V1038.55V1028.32V1027.3H1154.44V1019.12H1150.35V1010.93H1146.27C1146.27 1009.91 1146.27 1007.53 1146.27 1003.78V1002.75H1142.18V994.571H1138.09V990.48H1134V982.298H1129.91C1129.91 981.276 1129.91 978.889 1129.91 975.14V974.117H1125.82V965.935H1121.73V961.844H1117.64V953.663H1113.55V949.572H1109.46C1109.46 948.549 1109.46 946.163 1109.46 942.413V941.39H1105.37V933.209H1101.29V929.118H1097.2V920.936H1093.11V916.845H1089.02V908.664H1084.93V900.482H1080.84V892.3H1076.75V884.119H1072.66V875.937H1068.57V874.914V864.687V863.664H1064.48V862.642V435.15V434.128H1068.57V430.037H1069.59H1083.91H1084.93V425.946H1085.95H1096.17H1097.2V421.855H1098.22H1108.44H1109.46V417.764H1110.49H1120.71H1121.73V413.674H1129.91V409.583H1134V405.492H1142.18V401.401H1146.27V397.31H1154.44V393.219H1158.53V389.129H1166.71V385.038H1170.8V380.947H1178.98V376.856H1183.07V372.765H1191.25V368.674H1199.42V364.584H1203.51V360.493H1211.69V356.402H1212.71H1222.94H1223.96V352.311H1232.14V348.22H1233.16H1243.38H1244.4V344.129H1245.43H1255.65H1256.67V340.039H1257.69H1267.92H1268.94V335.948H1269.96H1288.36H1289.38V331.857H1290.41H1304.72H1305.74V327.766H1306.76H1325.16H1326.19V323.675H1327.21H1341.52H1342.54V319.585H1343.56H1353.79H1354.81V315.494H1362.99V311.403H1371.17V307.312H1379.34V303.221H1387.52V299.13C1388.54 299.13 1390.93 299.13 1394.68 299.13H1395.7V295.04H1403.88V290.949H1407.97V286.858H1412.06V282.767H1416.15V278.676H1420.23V274.585H1424.32V270.495H1428.41V266.404H1432.5V265.381V255.154V254.131H1424.32V250.04H1420.23V245.95H1412.06V241.859H1407.97V237.768H1403.88V233.677H1399.79V229.586H1395.7V225.495H1391.61V221.405H1387.52V217.314H1383.43V213.223H1379.34V205.041H1375.25V196.86H1371.17V188.678H1367.08V187.655V177.428V176.406H1362.99V172.315H1361.96H1347.65H1346.63V168.224H1345.61H1335.39H1334.36V164.133C1333.34 164.133 1330.96 164.133 1327.21 164.133H1326.19V160.042H1318.01V155.951H1313.92V151.861H1309.83V147.77H1301.65V143.679H1297.56V139.588H1293.47V135.497H1289.38V131.406H1285.29V127.316H1281.21V123.225H1277.12V119.134H1268.94V115.043H1264.85V110.952H1256.67V106.862H1252.58V102.771H1244.4V98.6798H1236.23V94.589H1228.05V90.4982H1219.87V86.4074H1218.85H1208.62H1207.6V82.3165H1206.58H1196.36H1195.33V78.2257H1194.31H1184.09H1183.07V74.1349H1182.04H1163.64H1162.62V70.0441H1161.6H1077.77H1076.75V74.1349H1075.73H1057.33H1056.31V78.2257H1055.28H1040.97H1039.95V82.3165H1038.93H1028.7H1027.68V86.4074H1026.66H1016.44H1015.41V90.4982C1014.39 90.4982 1012.01 90.4982 1008.26 90.4982H1007.24V94.589H999.058V98.6798H994.969V102.771H986.79V106.862H982.701V110.952H974.523V115.043H970.434V119.134H966.345V123.225H962.256V127.316H958.167V131.406H957.144H914.209H913.187V135.497H912.164H893.764H892.741V139.588H891.719H881.496H880.474V143.679H872.296V147.77C871.273 147.77 868.888 147.77 865.14 147.77H864.118V151.861H855.939V155.951H851.85V160.042H847.761V164.133H843.672V168.224H839.583V172.315H835.494V176.406H831.405V184.587H827.316V188.678H823.227V196.86H819.138V197.882V208.109V209.132H815.048V210.155V228.564V229.586H810.959V230.609V249.018V250.04H815.048V251.063V269.472V270.495H819.138V278.676H823.227V286.858H827.316V295.04H831.405V299.13H835.494V303.221H839.583V307.312H843.672V311.403H847.761V315.494H851.85V319.585H855.939V323.675H864.118V327.766H872.296V331.857H880.474V335.948H888.652V340.039H889.674H899.897H900.919V344.129H905.009V348.22H909.098V352.311H913.187V360.493H917.276V364.584H921.365V372.765H925.454V376.856H929.543V380.947H933.632V385.038H937.721V389.129H941.81V393.219H945.899V397.31H949.989V401.401H954.078V405.492H958.167V409.583H966.345V413.674H970.434V417.764H978.612V421.855H986.79V425.946H994.969V430.037H999.058V431.06V862.642V863.664H994.969V864.687V874.914V875.937H990.88V884.119H986.79V892.3H982.701V900.482H978.612C978.612 901.505 978.612 903.891 978.612 907.641V908.664H974.523V916.845H970.434V920.936H966.345V929.118H962.256V937.299H958.167V941.39H954.078C954.078 942.413 954.078 944.799 954.078 948.549V949.572H949.989V957.754H945.899V961.844H941.81V970.026H937.721V974.117H933.632V982.298H929.543V990.48H925.454V998.662H921.365V1006.84H917.276V1015.03H913.187V1023.21H909.098V1031.39H905.009V1039.57H900.919V1047.75H896.83V1048.77V1059V1060.02H892.741V1068.21H888.652V1069.23V1079.46V1080.48H884.563V1081.5V1095.82V1096.84H880.474V1097.86V1108.09V1109.11H876.385V1110.14V1128.55V1129.57H872.296V1130.59V1165.36V1166.39H868.207V1167.41V1198.09V1199.11H872.296V1200.14V1230.82V1231.84H876.385V1232.86V1251.27V1252.29H880.474V1253.32V1267.63V1268.66H884.563V1269.68V1279.91V1280.93H888.652V1289.11H892.741V1290.13V1300.36V1301.38H896.83V1309.56H900.919V1317.75H905.009V1325.93H909.098C909.098 1326.95 909.098 1329.34 909.098 1333.09V1334.11H913.187V1342.29H917.276V1346.38H921.365C921.365 1347.4 921.365 1349.79 921.365 1353.54V1354.56H925.454V1362.75H929.543V1366.84H933.632V1375.02H937.721V1379.11H941.81V1383.2H945.899C945.899 1384.22 945.899 1386.61 945.899 1390.36V1391.38H949.989V1399.56H954.078V1403.65H958.167C958.167 1404.68 958.167 1407.06 958.167 1410.81V1411.84H962.256V1420.02H966.345V1424.11H970.434V1432.29H974.523V1440.47H978.612V1448.65H982.701V1456.83H986.79V1457.86V1468.08V1469.11H990.88V1470.13V1484.45V1485.47H994.969V1486.49V1504.9V1505.92H999.058V1506.95V1680.81V1681.83H994.969V1682.85V1693.08V1694.1H990.88V1698.19H982.701V1702.28H981.679H967.367H966.345V1698.19H958.167V1694.1H954.078V1685.92H949.989V1684.9V1670.58V1669.56H945.899V1668.53V1658.31V1657.28H941.81V1656.26V1641.94V1640.92H937.721V1639.9V1629.67V1628.65H933.632V1627.63V1617.4V1616.38H929.543V1615.35V1605.13V1604.1H925.454V1603.08V1592.85V1591.83H921.365V1583.65H917.276V1575.47H913.187V1567.29H909.098V1559.11H905.009V1550.92H900.919C900.919 1549.9 900.919 1547.51 900.919 1543.76V1542.74H896.83V1534.56H892.741V1530.47H888.652V1522.29H884.563V1518.2H880.474V1510.02H876.385V1505.92H872.296V1501.83H868.207V1497.74H864.118V1489.56H860.028V1485.47H855.939V1481.38H851.85V1477.29H847.761V1473.2H843.672V1469.11H839.583V1465.02H835.494V1460.93H831.405V1452.74H827.316V1448.65H823.227V1444.56H819.138V1440.47H815.048V1436.38H810.959V1432.29H806.87V1428.2H802.781V1424.11H798.692V1420.02H794.603V1415.93H790.514V1407.74H786.425V1403.65H782.336V1399.56H778.247V1391.38H774.157V1387.29H770.068V1379.11H765.979V1375.02H761.89V1366.84H757.801V1362.75H753.712V1354.56H749.623V1346.38H745.534V1338.2H741.445V1330.02H737.356V1321.84H733.267V1320.81V1310.59V1309.56H729.177V1308.54V1298.31V1297.29H725.088V1296.27V1281.95V1280.93H720.999V1279.91V1261.5V1260.47H716.91V1259.45V1052.87V1051.84H720.999V1050.82V1020.14V1019.12H725.088V1018.09V995.594V994.571H729.177V993.548V975.14V974.117H733.267V973.094V958.776V957.754H737.356V956.731V942.413V941.39H741.445V940.368V921.959V920.936H745.534V919.913V905.595V904.573H749.623V903.55V889.232V888.209H753.712V887.187V876.96V875.937H757.801V874.914V860.596V859.574H761.89V858.551V848.324V847.301H765.979V846.278V831.961V830.938H770.068V829.915V815.597V814.575H774.157V813.552V799.234V798.211H778.247V797.189V782.871V781.848H782.336V780.825V762.417V761.394H786.425V760.371V746.053V745.031H790.514V744.008V725.599V724.576H794.603V723.554V701.054V700.031H798.692V699.009V672.418V671.396H802.781V670.373V631.51V630.487H806.87V629.465V561.966V560.943H810.959V559.921V500.604V499.581H806.87V498.558V443.332V442.309H802.781V441.287V406.515V405.492H798.692V404.469V381.97V380.947H794.603V379.924V361.515V360.493H790.514V359.47V345.152V344.129H786.425V343.107V324.698V323.675H782.336V322.653V308.335V307.312H778.247V306.289V283.79V282.767H774.157V281.744V206.064V205.041H778.247V204.019V185.61V184.587H782.336V183.565V173.337V172.315H786.425V171.292V161.065V160.042H790.514V151.861H794.603V143.679H798.692V135.497H802.781C802.781 134.475 802.781 132.088 802.781 128.338V127.316H806.87V119.134H810.959V115.043H815.048V106.862H819.138V102.771H823.227V98.6798H827.316V94.589H831.405V90.4982H835.494V86.4074H839.583V82.3165H843.672V78.2257H847.761V74.1349H851.85V70.0441H855.939V65.9532H860.028V61.8624H868.207V57.7716H872.296V53.6808H876.385V49.5899H884.563V45.4991H888.652V41.4083H896.83V37.3174H905.009V33.2266H913.187V29.1358H914.209H924.432H925.454V25.045H933.632V20.9541H934.654H944.877H945.899V16.8633H946.922H957.144H958.167V12.7725H959.189H973.501H974.523V8.68165H975.545H989.857H990.88V4.59083H991.902H1022.57H1023.59V0.5Z" fill="#182E47" stroke="#182E47"/>
<path d="M1170.76 119.087H1171.78H1194.23H1195.25V123.178H1196.27H1206.48H1207.5V127.269H1215.67V131.359H1219.75V135.45H1223.83V139.541H1227.91V143.632H1231.99V147.723H1236.08V148.745V158.972V159.995H1240.16V161.018V187.608V188.631H1236.08C1236.08 189.654 1236.08 192.04 1236.08 195.79V196.813H1231.99V204.994H1227.91V209.085H1223.83V213.176H1219.75V217.267C1218.73 217.267 1216.35 217.267 1212.6 217.267H1211.58V221.358H1203.42V225.448H1202.4H1167.7H1166.68V221.358C1165.66 221.358 1163.27 221.358 1159.53 221.358H1158.51V217.267H1150.35V213.176H1146.26V209.085H1142.18V204.994H1138.1V200.903H1134.02V192.722H1129.93V191.699V177.381V176.358H1125.85V168.177H1129.93V167.154V152.836V151.814H1134.02V143.632H1138.1V139.541H1142.18V135.45H1146.26V131.359H1150.35V127.269H1158.51V123.178H1159.53H1169.74H1170.76V119.087Z" fill="#182E47" stroke="#182E47"/>
<path d="M917.528 160.042H925.712V164.134H926.735H945.15H946.173V168.226H954.357V172.318H958.449V176.411H962.541V180.503H966.633V184.595H970.726V192.779H974.818V196.871H978.91V205.055H983.002V206.078V220.401V221.424H987.094V222.447V249.046V250.069H983.002V251.092V261.322V262.345H978.91C978.91 263.368 978.91 265.755 978.91 269.507V270.53H974.818V278.714H970.726V282.806H966.633V286.898H962.541V290.99H958.449V295.082H950.265V299.175H946.173V303.267H945.15H934.919H933.896V307.359H932.873H893.998H892.975V303.267H891.952H881.722H880.699V299.175C879.676 299.175 877.289 299.175 873.537 299.175H872.514V295.082H864.33V290.99H860.238V286.898H856.146V282.806H852.054V274.622H847.962V266.437H843.869V265.414V255.184V254.161H839.777V253.138V222.447V221.424H843.869V220.401V210.171V209.148H847.962V200.963H852.054V196.871H856.146V192.779H860.238V184.595H868.422V180.503H872.514V176.411H876.607V172.318H884.791V168.226H885.814H896.044H897.067V164.134H898.09H916.505H917.528V160.042Z" fill="#182E47" stroke="#182E47"/>
<path d="M724.785 1420.49H728.877V1428.67H732.969V1436.85H737.061V1445.02H741.153C741.153 1446.05 741.153 1448.43 741.153 1452.18V1453.2H745.245V1461.38H749.337V1465.47H753.429V1473.65H757.521V1477.74H761.613V1485.92H765.705V1490.01H769.797V1494.1H773.889V1498.19H777.981V1506.37H782.073V1510.46H786.165V1514.55H790.257V1518.64H794.349V1522.73H798.441V1526.82H802.533V1530.91H806.625V1535H810.717V1539.09H814.809V1543.18H818.901V1551.35H822.993V1555.44H827.085V1559.53H831.177V1563.62H835.269V1567.71H839.361V1575.89H843.453V1579.98H847.545V1584.07H851.637V1588.16H855.729V1596.34H859.821V1600.43H863.913V1604.52H868.005V1612.7H872.097V1616.79H876.189V1620.88H880.281V1629.06H884.373C884.373 1630.08 884.373 1632.46 884.373 1636.21V1637.24H888.465V1645.42H892.557V1649.5H896.649C896.649 1650.53 896.649 1652.91 896.649 1656.66V1657.68H900.741V1665.86H904.833V1669.95H908.925V1678.13H913.017V1686.31H917.109V1694.49H921.201V1702.67H925.293V1710.85H929.385V1719.03H933.477V1727.21H937.569V1735.39H941.661V1743.57H945.753V1744.59V1754.81V1755.83H949.845V1764.01H953.937V1765.04V1775.26V1776.28H958.029V1777.3V1791.62V1792.64H962.121V1793.66V1807.98V1809H966.213V1810.02V1824.34V1825.36H970.305V1826.38V1852.96V1853.98H974.397V1855.01V1902.04V1903.06H978.489V1904.08V2032.9V2033.93H982.581V2034.95V2200.58V2201.6H983.604H1079.77H1080.79V2197.51H1084.88V2196.49V1949.07V1948.05H1088.97V1947.02V1850.92V1849.9H1093.07V1848.87V1822.29V1821.27H1097.16V1820.25V1801.84V1800.82H1101.25V1799.8V1789.57V1788.55H1105.34V1787.53V1777.3V1776.28H1109.43V1775.26V1765.04V1764.01H1113.53V1755.83H1117.62V1754.81V1744.59V1743.57H1121.71V1735.39H1125.8V1727.21H1129.89V1726.18V1715.96V1714.94H1133.99V1706.76H1138.08C1138.08 1705.74 1138.08 1703.35 1138.08 1699.6V1698.58H1142.17V1690.4H1146.26V1686.31H1150.35V1678.13H1154.45V1669.95H1158.54C1158.54 1668.93 1158.54 1666.54 1158.54 1662.8V1661.77H1162.63V1653.59H1166.72V1649.5H1170.81C1170.81 1648.48 1170.81 1646.1 1170.81 1642.35V1641.33H1174.91V1633.15H1179V1629.06H1183.09V1620.88H1187.18V1616.79H1191.27V1608.61H1195.37V1604.52H1199.46V1596.34H1203.55V1592.25H1207.64V1588.16H1211.73V1579.98H1215.83V1575.89H1219.92V1571.8H1224.01V1567.71H1228.1V1563.62H1232.19V1559.53H1236.29V1555.44H1240.38V1547.26H1244.47V1543.18H1248.56V1539.09H1252.65V1535H1256.75V1530.91H1260.84V1526.82H1264.93V1522.73H1269.02V1518.64H1273.11V1510.46H1277.21V1506.37H1281.3V1502.28H1285.39V1498.19H1289.48V1494.1H1293.57V1485.92H1297.67V1481.83H1301.76V1477.74H1305.85V1469.56H1309.94V1465.47H1314.03V1457.29H1318.13V1453.2H1322.22V1445.02H1326.31V1436.85H1330.4V1428.67H1334.49V1420.49H1338.59V1421.51V1456.27V1457.29H1342.68V1458.32V1497.17V1498.19H1346.77V1499.21V1546.24V1547.26H1350.86V1548.29V1591.23V1592.25H1354.95V1593.27V1632.12V1633.15H1359.05V1634.17V1681.2V1682.22H1363.14V1683.24V1718.01V1719.03H1367.23V1720.05V1758.9V1759.92H1371.32V1760.95V1799.8V1800.82H1375.41V1801.84V1840.69V1841.72H1379.51V1842.74V1877.5V1878.52H1383.6V1879.54V1918.4V1919.42H1387.69V1920.44V1959.29V1960.31H1391.78V1961.34V1996.1V1997.12H1395.87V1998.14V2028.82V2029.84H1399.97V2030.86V2065.62V2066.64H1404.06V2067.67V2102.43V2103.45H1408.15V2104.47V2135.14V2136.17H1412.24V2137.19V2171.95V2172.97H1416.33V2174V2208.76V2209.78H1420.43V2210.8V2233.3V2234.32H1421.45H1448.05H1449.07V2238.41H1450.09H1476.69H1477.71V2242.5H1478.74H1509.43H1510.45V2246.59H1511.47H1533.98H1535V2250.68H1536.03H1558.53H1559.55V2254.77H1560.58H1583.08H1584.11V2258.86H1585.13H1607.64H1608.66V2262.94H1609.68H1632.19H1633.21V2267.03H1629.12V2271.12H1628.1H1613.77H1612.75V2275.21H1611.73H1597.41H1596.38V2279.3H1595.36H1581.04H1580.01V2283.39H1578.99H1564.67H1563.65V2287.48H1562.62H1552.39H1551.37V2291.57H1550.35H1536.03H1535V2295.66H1533.98H1523.75H1522.73V2299.75H1521.7H1511.47H1510.45V2303.84H1509.43H1499.2H1498.17V2307.93H1497.15H1486.92H1485.9V2312.02H1484.88H1474.65H1473.62V2316.11H1472.6H1462.37H1461.35V2320.2H1453.16V2324.29H1452.14H1441.91H1440.89V2328.38H1439.86H1429.63H1428.61V2332.47H1420.43V2336.56H1412.24V2340.65H1411.22H1400.99H1399.97V2344.74H1391.78V2348.83H1383.6V2352.92H1382.57H1372.34H1371.32V2357.01H1363.14V2361.1H1354.95V2365.18H1346.77V2369.27H1338.59V2373.36H1330.4V2377.45H1322.22V2381.54H1314.03V2385.63H1305.85V2389.72H1297.67V2393.81H1289.48V2397.9H1281.3V2401.99H1273.11V2406.08C1272.09 2406.08 1269.7 2406.08 1265.95 2406.08H1264.93V2410.17H1256.75V2414.26H1252.65V2418.35H1244.47V2422.44C1243.45 2422.44 1241.06 2422.44 1237.31 2422.44H1236.29V2426.53H1228.1V2430.62H1224.01V2434.71H1215.83V2438.8C1214.8 2438.8 1212.42 2438.8 1208.66 2438.8H1207.64V2442.89H1199.46V2446.98H1195.37V2451.07C1194.34 2451.07 1191.96 2451.07 1188.2 2451.07H1187.18V2455.16H1179V2459.25H1174.91V2463.34H1166.72V2467.42H1162.63V2471.51C1161.61 2471.51 1159.22 2471.51 1155.47 2471.51H1154.45V2475.6H1146.26V2479.69H1142.17V2483.78H1133.99V2487.87H1129.89V2491.96C1128.87 2491.96 1126.48 2491.96 1122.73 2491.96H1121.71V2496.05H1113.53V2500.14H1109.43V2504.23H1105.34V2508.32H1097.16V2512.41H1093.07V2516.5H1092.04H1.523H0.5V2512.41H4.59201V2508.32H8.68401V2504.23H12.776V2500.14H20.96V2496.05H25.052V2491.96H33.236V2487.87H37.3281V2483.78H45.5121V2479.69H49.6041V2475.6H57.7881V2471.51H61.8801V2467.42H70.0641V2463.34H74.1561V2459.25C75.1791 2459.25 77.5661 2459.25 81.3171 2459.25H82.3401V2455.16H90.5241V2451.07H94.6161V2446.98H102.8V2442.89C103.823 2442.89 106.21 2442.89 109.961 2442.89H110.984V2438.8H119.168V2434.71H123.26V2430.62H131.444V2426.53H139.628V2422.44H147.812V2418.35H155.996V2414.26H164.18V2410.17H172.364V2406.08H180.548V2401.99H188.732V2397.9H196.916V2393.81H197.939H208.169H209.192V2389.72H217.376V2385.63H225.56V2381.54H233.744V2377.45H234.767H244.997H246.02V2373.36H254.204V2369.27H255.227H265.457H266.48V2365.18H267.503H277.733H278.756V2361.1H286.94V2357.01H287.963H298.193H299.216V2352.92H300.239H310.469H311.492V2348.83H312.515H322.745H323.768V2344.74H324.791H335.021H336.044V2340.65H344.228V2336.56H345.251H355.481H356.504V2332.47H357.527H367.758H368.781V2328.38H369.804H380.034H381.057V2324.29H382.08H396.402H397.425V2320.2H398.448H408.678H409.701V2316.11H410.724H420.954H421.977V2312.02H423H437.322H438.345V2307.93H439.368H453.69H454.713V2303.84H455.736H465.966H466.989V2299.75H468.012H482.334H483.357V2295.66H484.38H498.702H499.725V2291.57H500.748H515.07H516.093V2287.48H517.116H535.53H536.553V2283.39H537.576H551.898H552.921V2279.3H553.944H572.358H573.381V2275.21H574.404H588.726H589.749V2271.12H590.772H609.186H610.209V2267.03H611.232H629.646H630.669V2262.94H631.692H641.922H642.945V2261.92V2239.43V2238.41H647.037V2237.38V2194.44V2193.42H651.129V2192.4V2153.55V2152.53H655.221V2151.5V2120.83V2119.81H659.313V2118.79V2075.85V2074.82H663.405V2073.8V2034.95V2033.93H667.497V2032.9V1998.14V1997.12H671.589V1996.1V1961.34V1960.31H675.681V1959.29V1920.44V1919.42H679.773V1918.4V1879.54V1878.52H683.865V1877.5V1838.65V1837.63H687.957V1836.6V1801.84V1800.82H692.049V1799.8V1765.04V1764.01H696.141V1762.99V1728.23V1727.21H700.233V1726.18V1679.15V1678.13H704.325V1677.11V1638.26V1637.24H708.417V1636.21V1593.27V1592.25H712.509V1591.23V1548.29V1547.26H716.601V1546.24V1499.21V1498.19H720.693V1497.17V1458.32V1457.29H724.785V1456.27V1421.51V1420.49Z" fill="#182E47" stroke="#182E47"/>
<path d="M1707.01 2287.88H1708.03H1726.44H1727.46V2291.97H1728.49H1746.9H1747.92V2296.06H1748.94H1763.26H1764.28V2300.15H1765.31H1783.71H1784.74V2304.24H1785.76H1800.08H1801.1V2308.33H1802.12H1812.35H1813.37V2312.42H1814.4H1828.72H1829.74V2316.51H1830.76H1840.99H1842.01V2320.6H1843.03H1853.26H1854.28V2324.69H1855.31H1869.63H1870.65V2328.78H1871.67H1881.9H1882.92V2332.87H1883.94H1894.17H1895.19V2336.96H1903.38V2341.05H1904.4H1914.63H1915.65V2345.14H1916.67H1926.9H1927.92V2349.23H1928.95H1939.17H1940.2V2353.32H1948.38V2357.41H1949.4H1959.63H1960.65V2361.5H1968.83V2365.59H1977.01V2369.68H1978.04H1988.27H1989.29V2373.77H1997.47V2377.86H2005.65V2381.95H2013.83V2386.04H2022.02V2390.13H2030.2V2394.22H2038.38V2398.31H2046.56V2402.4H2054.74V2406.49H2062.93V2410.58H2071.11V2414.67C2072.13 2414.67 2074.52 2414.67 2078.27 2414.67H2079.29V2418.76H2087.47V2422.85H2091.56V2426.94C2092.59 2426.94 2094.97 2426.94 2098.72 2426.94H2099.75V2431.03H2107.93V2435.12H2112.02V2439.21C2113.04 2439.21 2115.43 2439.21 2119.18 2439.21H2120.2V2443.3H2128.38V2447.39H2132.47V2451.48H2140.66V2455.57H2144.75V2459.66H2152.93V2463.75H2157.02V2467.84H2165.2V2471.93H2169.29V2476.02H2177.47V2480.11H2181.57V2484.2H2189.75V2488.29H2193.84V2492.38H2202.02V2496.47H2206.11V2500.56H2210.2V2504.65H2214.29V2508.74H2222.48V2512.83H2221.45H1172.11H1171.09V2508.74H1179.27V2504.65H1183.36V2500.56C1184.38 2500.56 1186.77 2500.56 1190.52 2500.56H1191.54V2496.47H1199.72V2492.38H1203.81V2488.29C1204.84 2488.29 1207.22 2488.29 1210.97 2488.29H1212V2484.2H1220.18V2480.11H1224.27V2476.02H1232.45V2471.93H1236.54V2467.84H1244.72V2463.75C1245.75 2463.75 1248.13 2463.75 1251.88 2463.75H1252.91V2459.66H1261.09V2455.57H1265.18V2451.48H1273.36V2447.39H1281.54V2443.3H1289.73V2439.21H1297.91V2435.12C1298.93 2435.12 1301.32 2435.12 1305.07 2435.12H1306.09V2431.03H1314.27V2426.94H1318.36V2422.85H1326.54V2418.76H1334.73V2414.67H1342.91V2410.58H1351.09V2406.49H1359.27V2402.4H1367.45V2398.31H1368.48H1378.7H1379.73V2394.22H1387.91V2390.13H1396.09V2386.04H1404.27V2381.95H1405.3H1415.52H1416.55V2377.86H1424.73V2373.77H1432.91V2369.68H1433.93H1444.16H1445.18V2365.59H1453.37V2361.5H1454.39H1464.62H1465.64V2357.41H1466.66H1476.89H1477.91V2353.32H1486.09V2349.23H1487.12H1497.34H1498.37V2345.14H1499.39H1509.62H1510.64V2341.05H1518.82V2336.96H1519.84H1530.07H1531.09V2332.87H1532.12H1542.35H1543.37V2328.78H1544.39H1558.71H1559.73V2324.69H1560.75H1570.98H1572V2320.6H1573.03H1583.26H1584.28V2316.51H1585.3H1599.62H1600.64V2312.42H1601.66H1611.89H1612.92V2308.33H1613.94H1628.26H1629.28V2304.24H1630.3H1644.62H1645.64V2300.15H1646.67H1660.98H1662.01V2296.06H1663.03H1681.44H1682.46V2291.97H1683.48H1705.99H1707.01V2287.88Z" fill="#D5652B" stroke="#182E47"/>
<path d="M13776 825.5H13779.4H13895.3H13898.7V839.109H13926V852.718H13939.6V866.328H13953.3V879.937H13966.9C13966.9 883.339 13966.9 891.278 13966.9 903.753V907.155H13980.6V934.374H13994.2V937.776V1012.63V1016.03H13980.6V1019.43V1053.45V1056.86H13966.9V1070.47H13953.3V1084.08H13939.6V1097.68H13926V1111.29H13898.7V1124.9H13895.3H13779.4H13776V1111.29H13748.7V1097.68H13735.1V1084.08H13721.4V1070.47H13707.8V1056.86H13694.2V1053.45V1019.43V1016.03H13680.5V1012.63V937.776V934.374H13694.2C13694.2 930.971 13694.2 923.033 13694.2 910.558V907.155H13707.8V879.937H13721.4V866.328H13735.1V852.718H13748.7V839.109H13776V825.5Z" fill="#182E47" stroke="#182E47"/>
<path d="M9004.14 839.757H9007.55H9287.3H9290.71V843.166V1340.82C9289.57 1344.23 9290.71 1345.37 9294.12 1344.23C9306.63 1344.23 9314.59 1344.23 9318 1344.23V1316.96H9345.3V1303.33H9358.94V1289.69H9372.59V1276.06H9386.24V1262.43H9413.53V1248.79H9440.82V1235.16H9468.11V1221.52H9495.41V1207.89H9498.82H9546.58H9549.99V1194.25H9553.4H9628.46H9631.87V1180.62H9635.28H9737.63H9741.04V1194.25H9744.45H9819.5H9822.92V1207.89H9826.33H9860.44H9863.85V1221.52H9867.27H9901.38H9904.79V1235.16H9932.09V1248.79C9935.5 1248.79 9943.46 1248.79 9955.97 1248.79H9959.38V1262.43H9986.67V1276.06H10000.3V1289.69H10014V1303.33H10041.3V1316.96H10054.9V1330.6H10068.5V1344.23H10082.2V1357.87H10095.8V1385.14H10109.5V1398.77H10123.1V1412.41H10136.8C10136.8 1415.81 10136.8 1423.77 10136.8 1436.27V1439.67H10150.4V1466.94H10164.1V1480.58H10177.7V1483.99V1518.07V1521.48H10191.4V1524.89V1558.98V1562.38H10205V1565.79V1613.51V1616.92H10218.7V1620.33V1695.32V1698.73H10232.3V1702.14V2486.12V2489.53H10228.9H9949.14H9945.73V2486.12V1702.14V1698.73H9932.09V1695.32V1647.6V1644.19H9918.44V1616.92H9904.79C9904.79 1613.51 9904.79 1605.56 9904.79 1593.06V1589.65H9891.15V1562.38H9877.5V1548.75H9863.85V1535.12H9850.21V1521.48H9836.56V1507.85H9822.92V1494.21H9809.27V1480.58H9781.98V1466.94H9778.57H9744.45H9741.04V1453.31H9737.63H9689.86H9686.45V1439.67H9683.04H9580.69H9577.28V1453.31H9573.87H9526.11H9522.7V1466.94H9519.29H9485.17H9481.76V1480.58C9478.35 1480.58 9470.39 1480.58 9457.88 1480.58H9454.47V1494.21H9427.17V1507.85H9413.53V1521.48H9399.88V1535.12H9386.24V1548.75H9372.59V1562.38H9358.94V1589.65H9345.3V1603.29H9331.65V1630.56H9318V1633.97V1668.05V1671.46H9304.36V1674.87V1722.59V1726H9290.71V1729.41V2486.12V2489.53H9287.3H9007.55H9004.14V2486.12V843.166V839.757Z" fill="#182E47" stroke="#182E47"/>
<path d="M12236.5 839.757H12239.9H12518.9H12522.3V843.164V1190.68V1194.09H12535.9V1207.71H12539.3H12818.3H12821.7V1211.12V1449.61V1453.02H12818.3H12525.7H12522.3V1456.43V2103.76V2107.16H12535.9V2110.57V2158.27V2161.68H12549.5V2188.93H12563.1V2202.56H12576.7V2216.19H12590.3V2229.82H12617.5V2243.45H12620.9H12777.4H12780.8V2229.82H12784.2H12831.9H12835.3V2233.22V2485.34V2488.75H12831.9H12797.8H12794.4V2502.38H12791H12702.6H12699.2V2516.01H12695.8H12620.9H12617.5V2502.38H12614.1H12539.3H12535.9V2488.75H12532.5H12484.8H12481.4V2475.12C12478 2475.12 12470.1 2475.12 12457.6 2475.12H12454.2V2461.49H12427V2447.87H12413.4V2434.24H12386.2V2420.61H12372.6V2406.98H12359V2393.35H12345.3V2379.73H12331.7V2366.1H12318.1V2338.84H12304.5V2325.21H12290.9V2321.81V2287.74V2284.33H12277.3V2257.07H12263.7V2253.67V2205.97V2202.56H12250.1V2199.15V2083.32V2079.91H12236.5V2076.5V843.164V839.757Z" fill="#182E47" stroke="#182E47"/>
<path d="M3224.79 1179.9H3228.2H3330.49H3333.9V1193.53H3337.31H3412.33H3415.74V1207.17H3419.15H3453.25H3456.66V1220.81H3460.07H3494.17H3497.58V1234.45H3524.85V1248.08C3528.26 1248.08 3536.22 1248.08 3548.72 1248.08H3552.13V1261.72H3579.41V1275.36H3593.05V1289H3606.69V1302.63H3633.97V1316.27H3647.61V1329.91H3661.25V1357.18H3674.89V1370.82H3678.3H3712.39H3715.8V1357.18H3729.44V1329.91H3756.72V1316.27H3770.36V1302.63H3784V1289H3797.64V1275.36H3824.92V1261.72H3838.56V1248.08H3865.83V1234.45H3893.11V1220.81H3896.52H3930.62H3934.03V1207.17H3937.44H3985.18H3988.59V1193.53H3992H4080.65H4084.06V1179.9H4087.47H4176.13H4179.54V1193.53H4182.95H4271.6H4275.01V1207.17H4278.42H4326.16H4329.57V1220.81H4356.85V1234.45H4360.26H4394.35H4397.76V1248.08H4425.04V1261.72H4438.68V1275.36H4465.96V1289H4479.6V1302.63H4493.24V1316.27H4520.52V1329.91H4534.16V1343.55H4547.8V1370.82H4561.44V1384.46H4575.07V1398.1H4588.71V1425.37H4602.35V1439.01H4615.99V1466.28H4629.63V1493.56H4643.27V1496.97V1531.06V1534.47H4656.91V1537.88V1571.98V1575.38H4670.55V1578.79V1626.53V1629.93H4684.19V1633.34V2485.69V2489.1H4680.78H4401.17C4397.76 2490.24 4396.63 2489.1 4397.76 2485.69C4397.76 2473.19 4397.76 2465.24 4397.76 2461.83H4411.4V2448.19H4397.76V2444.78V1660.62V1657.21H4384.13V1653.8V1619.71V1616.3H4370.49C4370.49 1612.89 4370.49 1604.93 4370.49 1592.43V1589.02H4356.85V1561.75H4343.21V1548.11H4329.57V1520.83H4315.93V1507.2H4302.29V1493.56H4275.01V1479.92H4247.73V1466.28H4220.45V1452.65H4217.04H4155.67H4152.26V1439.01H4148.85H4087.47H4084.06V1452.65H4080.65H4019.28H4015.87V1466.28H3988.59V1479.92H3961.31V1493.56H3947.67V1507.2H3934.03V1520.83H3920.39V1534.47H3906.75V1548.11H3893.11V1561.75H3879.47V1589.02H3865.83V1616.3H3852.2V1619.71V1653.8V1657.21H3838.56V1660.62V2485.69V2489.1H3835.15H3555.54H3552.13V2485.69V1687.89V1684.49H3538.49V1681.08V1633.34V1629.93H3524.85V1602.66H3511.21V1575.38H3497.58V1548.11H3483.94V1534.47H3470.3V1520.83H3456.66V1507.2H3443.02V1493.56H3429.38V1479.92H3402.1V1466.28H3374.82V1452.65H3371.41H3310.04H3306.63V1439.01H3303.22H3241.84H3238.43V1452.65H3235.02H3173.64H3170.23V1466.28C3166.82 1466.28 3158.87 1466.28 3146.37 1466.28H3142.96V1479.92H3115.68V1493.56H3102.04V1507.2H3074.76V1520.83H3061.12V1534.47H3047.48V1561.75H3033.84V1575.38H3020.2V1602.66H3006.56V1606.07V1640.16V1643.57H2992.92V1646.98V1721.99V1725.4H2979.28V1728.81V2485.69V2489.1H2975.87H2709.91H2706.5V2485.69V1633.34V1629.93H2720.14V1626.53V1578.79V1575.38H2733.78V1571.98V1537.88V1534.47H2747.42V1531.06V1496.97V1493.56H2761.06C2761.06 1490.15 2761.06 1482.19 2761.06 1469.69V1466.28H2774.7V1439.01H2788.34V1425.37H2801.97V1398.1H2815.61V1384.46H2829.25V1370.82H2842.89V1357.18H2856.53V1343.55H2870.17V1329.91H2883.81V1316.27H2897.45V1302.63H2911.09V1289H2924.73V1275.36H2952.01V1261.72H2979.28V1248.08H3006.56V1234.45H3033.84V1220.81H3037.25H3071.35H3074.76V1207.17H3078.17H3125.91H3129.32V1193.53H3132.73H3221.38H3224.79V1179.9Z" fill="#182E47" stroke="#182E47"/>
<path d="M5582.86 1179.9H5586.26H5715.79H5719.19V1193.53H5722.6H5797.59H5801V1207.16H5804.41H5852.12H5855.53V1220.8H5858.94H5893.02H5896.43V1234.43H5899.84H5933.93H5937.33V1248.06C5940.74 1248.06 5948.7 1248.06 5961.19 1248.06H5964.6V1261.7H5991.87V1275.33H6005.5V1288.97H6032.77V1302.6H6046.4V1316.23H6073.67V1329.87H6087.31V1343.5H6100.94V1357.13H6114.57V1370.77H6128.21V1384.4H6141.84V1398.04H6155.48V1411.67H6169.11V1438.94H6182.74V1452.57H6196.38V1479.84H6210.01V1493.47H6223.64V1520.74H6237.28V1548.01H6250.91V1575.27H6264.55V1578.68V1612.77V1616.18H6278.18V1619.58V1653.67V1657.08H6291.81V1660.49V1721.84V1725.25H6305.45V1728.65V1953.61V1957.02H6302.04H5272.69C5269.28 1955.88 5268.14 1957.02 5269.28 1960.43C5269.28 1972.93 5269.28 1980.88 5269.28 1984.29H5282.91V2011.56H5296.55V2014.96V2049.05V2052.46H5310.18V2066.09H5323.81V2093.36H5337.45V2106.99H5351.08V2120.63H5364.72V2147.89H5391.98V2161.53H5405.62V2175.16H5419.25V2188.79H5446.52V2202.43H5473.79V2216.06H5501.05V2229.7H5528.32V2243.33H5531.73H5606.72H5610.12V2256.96H5613.53H5688.52H5691.93V2243.33H5695.33H5770.32H5773.73V2229.7H5777.14H5824.86H5828.26V2216.06H5855.53V2202.43C5858.94 2202.43 5866.89 2202.43 5879.39 2202.43H5882.8V2188.79H5910.07V2175.16H5923.7V2161.53H5937.33V2147.89H5964.6V2134.26H5978.24V2120.63H5991.87V2093.36H5995.28H6029.36H6032.77V2106.99H6046.4V2120.63H6060.04V2134.26H6073.67V2147.89H6100.94V2161.53H6114.57V2175.16H6128.21V2188.79H6141.84V2202.43H6169.11V2216.06H6182.74V2229.7H6196.38V2243.33H6210.01V2270.6H6196.38V2284.23H6182.74V2297.87H6169.11V2325.13H6141.84V2338.77H6128.21V2352.4H6114.57V2366.03H6100.94V2379.67H6087.31V2393.3H6060.04V2406.94H6046.4V2420.57H6019.14V2434.2H5991.87V2447.84H5964.6V2461.47H5961.19H5927.11H5923.7V2475.1H5920.29H5886.21H5882.8V2488.74H5879.39H5845.31H5841.9V2502.37H5838.49H5749.87H5746.46V2516.01H5743.05H5559H5555.59V2502.37H5552.18H5490.83H5487.42V2488.74H5484.01H5436.29H5432.88V2475.1H5429.48H5395.39H5391.98V2461.47H5364.72V2447.84H5361.31H5327.22H5323.81V2434.2H5296.55V2420.57H5282.91V2406.94H5255.65V2393.3H5242.01V2379.67H5228.38V2366.03H5201.11V2352.4H5187.48V2338.77H5173.84V2325.13H5160.21V2311.5H5146.58V2297.87H5132.94V2284.23H5119.31V2270.6H5105.67V2243.33H5092.04V2229.7H5078.41V2202.43H5064.77V2188.79H5051.14V2161.53H5037.5V2134.26H5023.87V2130.85V2096.77V2093.36H5010.24V2089.95V2055.87V2052.46H4996.6V2049.05V2014.96V2011.56H4982.97V2008.15V1946.8V1943.39H4969.34V1939.98V1755.92V1752.51H4982.97V1749.11V1687.75V1684.34H4996.6V1680.94V1633.22V1629.81H5010.24V1626.4V1592.32V1588.91H5023.87V1561.64H5037.5V1534.37H5051.14C5051.14 1530.96 5051.14 1523.01 5051.14 1510.51V1507.11H5064.77V1479.84H5078.41V1466.2H5092.04V1452.57H5105.67V1425.3H5119.31V1411.67H5132.94V1398.04H5146.58V1384.4H5160.21V1370.77H5173.84V1357.13H5187.48V1343.5H5201.11V1329.87H5214.74V1316.23H5242.01V1302.6H5255.65V1288.97H5269.28V1275.33H5296.55V1261.7H5323.81V1248.06H5351.08V1234.43H5354.49H5388.57H5391.98V1220.8H5395.39H5429.48H5432.88V1207.16H5436.29H5484.01H5487.42V1193.53H5490.83H5579.45H5582.86V1179.9ZM5582.86 1438.94V1452.57H5521.5H5514.69V1466.2H5480.6H5473.79V1479.84H5446.52V1493.47H5432.88V1507.11H5405.62V1520.74H5391.98V1534.37H5378.35V1548.01H5364.72V1561.64H5351.08V1575.27H5337.45V1588.91H5323.81V1616.18H5310.18V1629.81H5296.55V1636.63V1670.71H5282.91V1697.98H5269.28V1711.61H5282.91V1725.25H5289.73H6005.5V1677.53V1670.71H5991.87V1643.44H5978.24V1616.18H5964.6V1588.91H5950.97V1575.27H5937.33V1561.64H5923.7V1548.01H5910.07V1534.37H5896.43V1520.74H5882.8V1507.11H5855.53V1493.47H5841.9V1479.84H5814.63V1466.2H5780.55H5773.73V1452.57H5726.01H5719.19V1438.94H5589.67H5582.86Z" fill="#182E47" stroke="#182E47"/>
<path d="M8064.11 1179.9H8067.51H8210.63H8214.04V1193.53H8217.45H8306.05H8309.46V1207.16H8312.86H8360.57H8363.98V1220.8H8367.39H8401.46H8404.87V1234.43H8432.13V1248.06H8459.39V1261.7H8486.65V1275.33C8490.06 1275.33 8498.01 1275.33 8510.51 1275.33H8513.91V1288.97H8541.18V1302.6H8554.81V1316.23H8568.44V1329.87H8595.7V1343.5H8609.33V1357.13H8622.96V1370.77H8636.59V1384.4H8650.22V1398.04H8663.85V1411.67H8677.48V1425.3H8691.11V1438.94H8704.74V1466.2H8691.11V1479.84H8663.85V1493.47H8650.22V1507.11H8622.96V1520.74H8609.33V1534.37H8582.07V1548.01H8568.44V1561.64H8541.18V1575.27H8527.55V1588.91C8524.14 1588.91 8516.19 1588.91 8503.69 1588.91H8500.28V1602.54H8473.02V1588.91H8459.39V1575.27H8445.76V1561.64H8432.13V1548.01H8418.5V1534.37H8404.87V1520.74H8377.61V1507.11H8363.98V1493.47H8336.72V1479.84H8309.46V1466.2H8306.05H8271.97H8268.56V1452.57H8265.16H8203.82H8200.41V1438.94H8197H8094.77H8091.37V1452.57H8087.96H8026.62H8023.21V1466.2H8019.81H7985.73H7982.32V1479.84C7978.91 1479.84 7970.96 1479.84 7958.47 1479.84H7955.06V1493.47H7927.8V1507.11H7914.17V1520.74H7886.91V1534.37H7873.28V1548.01H7859.65V1561.64H7846.02V1575.27H7832.39V1588.91H7818.75V1616.18H7805.12V1643.44H7791.49V1670.71H7777.86V1697.98H7764.23V1701.39V1749.11V1752.51H7750.6V1755.92V1939.98V1943.39H7764.23V1946.8V1980.88V1984.29H7777.86V1987.7V2021.78V2025.19H7791.49C7791.49 2028.6 7791.49 2036.55 7791.49 2049.05V2052.46H7805.12V2079.72H7818.75V2093.36H7832.39V2120.63H7846.02V2134.26H7859.65V2147.89H7873.28V2161.53H7900.54V2175.16H7914.17V2188.79H7927.8V2202.43H7955.06V2216.06H7958.47H7992.54H7995.95V2229.7H7999.36H8033.44H8036.84V2243.33H8040.25H8101.59H8105V2256.96H8108.4H8197H8200.41V2243.33H8203.82H8265.16H8268.56V2229.7H8271.97H8306.05H8309.46V2216.06C8312.86 2216.06 8320.81 2216.06 8333.31 2216.06H8336.72V2202.43H8363.98V2188.79H8377.61V2175.16H8404.87V2161.53H8418.5V2147.89H8432.13V2134.26H8445.76V2120.63H8459.39V2106.99H8473.02V2093.36H8476.43H8510.51H8513.91V2106.99H8527.55V2120.63H8554.81V2134.26H8568.44V2147.89H8595.7V2161.53H8609.33V2175.16H8636.59V2188.79H8650.22V2202.43H8677.48V2216.06H8691.11V2229.7H8704.74V2256.96H8691.11V2270.6H8677.48V2284.23H8663.85V2297.87H8650.22V2311.5H8636.59V2325.13H8622.96V2338.77H8609.33V2352.4H8595.7V2366.03H8582.07V2379.67H8554.81V2393.3H8541.18V2406.94H8513.91V2420.57H8500.28V2434.2H8473.02V2447.84H8445.76V2461.47H8442.35H8408.28H8404.87V2475.1H8401.46H8367.39H8363.98V2488.74H8360.57H8312.86H8309.46V2502.37H8306.05H8231.08H8227.67V2516.01H8224.26H8067.51H8064.11V2502.37H8060.7H7972.1H7968.69V2488.74H7965.28H7917.58H7914.17V2475.1H7886.91V2461.47H7883.5H7849.42H7846.02V2447.84H7818.75V2434.2C7815.35 2434.2 7807.4 2434.2 7794.9 2434.2H7791.49V2420.57H7764.23V2406.94H7750.6V2393.3H7723.34V2379.67H7709.71V2366.03H7696.08V2352.4H7682.45V2338.77H7668.82V2325.13H7655.19V2311.5H7641.56V2297.87H7627.93V2284.23H7614.3V2270.6H7600.67V2256.96H7587.03V2243.33H7573.4V2216.06H7559.77V2202.43H7546.14V2175.16H7532.51V2147.89H7518.88V2144.49V2110.4V2106.99H7505.25V2079.72H7491.62V2076.32V2042.23V2038.82H7477.99V2035.41V1974.06V1970.65H7464.36V1967.25V1728.65V1725.25H7477.99V1721.84V1660.49V1657.08H7491.62V1653.67V1619.58V1616.18H7505.25V1588.91H7518.88V1585.5V1551.42V1548.01H7532.51C7532.51 1544.6 7532.51 1536.65 7532.51 1524.15V1520.74H7546.14V1493.47H7559.77V1479.84H7573.4V1452.57H7587.03V1438.94H7600.67V1425.3H7614.3V1411.67H7627.93V1398.04H7641.56V1384.4H7655.19V1370.77H7668.82V1357.13H7682.45V1343.5H7696.08V1329.87H7709.71V1316.23H7723.34V1302.6H7750.6V1288.97H7764.23V1275.33H7791.49V1261.7H7818.75V1248.06H7846.02V1234.43H7849.42H7883.5H7886.91V1220.8H7890.32H7924.39H7927.8V1207.16H7931.21H7965.28H7968.69V1193.53H7972.1H8060.7H8064.11V1179.9Z" fill="#182E47" stroke="#182E47"/>
<path d="M11118.5 1179.9H11121.9H11237.7H11241.1V1193.53H11244.5H11319.5H11322.9V1207.16H11326.3H11360.4H11363.8V1220.8H11367.2H11401.3H11404.7V1234.43H11431.9V1248.06C11435.3 1248.06 11443.3 1248.06 11455.8 1248.06H11459.2V1261.7H11486.4V1275.33H11500.1V1288.97H11513.7V1302.6H11541V1316.23H11554.6V1329.87H11568.2V1343.5H11581.8V1357.13H11595.5V1353.73V1210.57V1207.16H11598.9H11878.2H11881.7V1210.57V2485.33C11882.8 2488.74 11881.7 2489.87 11878.2 2488.74H11598.9H11595.5V2485.33V2342.17C11596.6 2338.77 11595.5 2337.63 11592.1 2338.77C11579.6 2338.77 11571.6 2338.77 11568.2 2338.77V2366.03H11554.6V2379.67H11541V2393.3H11527.3V2406.94H11500.1V2420.57H11486.4V2434.2H11459.2V2447.84H11445.6V2461.47H11442.2H11408.1H11404.7V2475.1H11377.4V2488.74H11374H11339.9H11336.5V2502.37H11333.1H11258.2H11254.8V2516.01H11251.4H11094.6H11091.2V2502.37H11087.8H11012.9H11009.5V2488.74H11006.1H10958.4H10955V2475.1H10927.7V2461.47H10924.3H10890.2H10886.8V2447.84C10883.4 2447.84 10875.5 2447.84 10863 2447.84H10859.6V2434.2H10832.3V2420.57H10818.7V2406.94H10791.4V2393.3H10777.8V2379.67H10750.5V2366.03H10736.9V2352.4H10723.3V2338.77H10709.7V2325.13H10696V2311.5H10682.4V2297.87H10668.8V2284.23H10655.1V2256.96H10641.5V2243.33H10627.9V2229.7H10614.3V2202.43H10600.6V2175.16H10587V2147.89H10573.4V2120.63H10559.7V2093.36H10546.1V2089.95V2042.23V2038.82H10532.5V2035.41V1987.7V1984.29H10518.9V1980.88V1878.63V1875.22H10505.2V1871.81V1824.09V1820.68H10518.9V1817.27V1715.02V1711.61H10532.5V1708.2V1660.49V1657.08H10546.1V1653.67V1605.95V1602.54H10559.7V1575.27H10573.4V1548.01H10587V1520.74H10600.6C10600.6 1517.33 10600.6 1509.38 10600.6 1496.88V1493.47H10614.3V1466.2H10627.9V1452.57H10641.5V1438.94H10655.1V1411.67H10668.8V1398.04H10682.4V1384.4H10696V1370.77H10709.7V1357.13H10723.3V1343.5H10736.9V1329.87H10750.5V1316.23H10777.8V1302.6H10791.4V1288.97H10818.7V1275.33H10832.3V1261.7H10859.6V1248.06H10886.8V1234.43H10890.2H10924.3H10927.7V1220.8H10931.1H10965.2H10968.6V1207.16H10972H11006.1H11009.5V1193.53H11012.9H11115.1H11118.5V1179.9ZM11145.7 1438.94V1452.57H11084.4H11077.6V1466.2H11043.5H11036.7V1479.84H11009.5V1493.47H10982.2V1507.11H10968.6V1520.74H10941.3V1534.37H10927.7V1548.01H10914.1V1561.64H10900.4V1575.27H10886.8V1602.54H10873.2V1616.18H10859.6V1643.44H10845.9V1650.26C10845.9 1659.35 10845.9 1666.17 10845.9 1670.71H10832.3V1697.98H10818.7V1704.8V1738.88H10805V1745.7V1943.39H10818.7V1950.2V1997.92H10832.3V2025.19H10845.9V2052.46H10859.6V2079.72H10873.2V2093.36H10886.8V2106.99H10900.4V2120.63H10914.1V2134.26H10927.7V2147.89H10941.3V2161.53H10955V2175.16H10968.6V2188.79H10995.8V2202.43H11009.5V2216.06H11016.3H11050.4V2229.7H11077.6V2243.33H11084.4H11159.4V2256.96H11166.2H11241.1V2243.33H11248H11309.3V2229.7H11316.1H11350.2V2216.06H11377.4V2202.43H11404.7V2188.79H11431.9V2175.16H11445.6V2161.53H11459.2V2147.89H11472.8V2134.26H11486.4V2120.63H11500.1V2106.99H11513.7V2093.36H11527.3V2079.72H11541V2052.46H11554.6C11554.6 2038.82 11554.6 2029.73 11554.6 2025.19H11568.2V1991.11V1984.29H11581.8V1950.2V1943.39H11595.5V1759.33V1752.51H11581.8V1704.8V1697.98H11568.2V1670.71H11554.6V1643.44H11541V1616.18H11527.3V1602.54H11513.7V1588.91H11500.1V1561.64H11486.4V1548.01H11459.2V1534.37H11445.6V1520.74H11431.9V1507.11H11418.3V1493.47H11391V1479.84C11377.4 1479.84 11368.3 1479.84 11363.8 1479.84V1466.2H11329.7H11322.9V1452.57H11261.6H11254.8V1438.94H11152.6H11145.7Z" fill="#182E47" stroke="#182E47"/>
<path d="M7028.18 1194.15H7031.58H7256.49H7259.9V1207.79H7287.16V1211.2V1463.45V1466.86H7259.9V1453.23H7256.49H7086.11H7082.7V1466.86H7079.29H7045.21H7041.81V1480.5H7014.55V1494.13H7000.92V1507.77H6973.65V1521.41H6960.02V1535.04H6946.39V1548.68H6932.76V1575.95H6919.13V1589.58H6905.5V1616.85H6891.87V1620.26V1667.99V1671.4H6878.24V1674.8V1749.8V1753.21H6864.61V1756.62V2486.12V2489.53H6861.2H6581.77H6578.37V2462.26H6592V2458.85V2383.85V2380.44H6578.37V2377.03V1742.98V1739.57H6592V1736.16V1620.26V1616.85H6605.63V1613.44V1579.36V1575.95H6619.26V1572.54V1538.45V1535.04H6632.89V1531.63V1497.54V1494.13H6646.52V1480.5H6660.15C6660.15 1477.09 6660.15 1469.14 6660.15 1456.64V1453.23H6673.78V1425.96H6687.41V1412.32H6701.04V1398.69H6714.67V1371.41H6728.3V1357.78H6741.93V1344.14H6755.56V1330.51H6769.2V1316.87H6782.83V1303.24H6810.09V1289.6H6823.72V1275.97H6850.98V1262.33H6878.24V1248.69H6905.5V1235.06H6932.76V1221.42H6936.17H6970.25H6973.65V1207.79H6977.06H7024.77H7028.18V1194.15Z" fill="#182E47" stroke="#182E47"/>
<path d="M14771.9 1261.37H14775.3H14972.8H14976.2V1275H14979.6H15040.9H15044.3V1288.64H15047.8H15095.4H15098.8V1302.28H15126.1V1315.91H15129.5H15163.5H15166.9V1329.55H15194.2V1343.19H15207.8V1356.83C15211.2 1356.83 15219.2 1356.83 15231.7 1356.83H15235.1V1370.46H15262.3V1384.1H15275.9V1397.74H15289.5V1411.38H15303.2V1425.01H15316.8V1438.65H15330.4V1452.29H15344V1465.93H15357.7V1479.56H15371.3V1493.2H15384.9V1506.84H15398.5V1534.11H15412.1V1547.75H15425.8V1575.03H15439.4V1602.3H15453V1629.57H15466.6V1656.85H15480.3V1660.26V1707.99V1711.4H15493.9V1714.81V1762.54V1765.95H15507.5V1769.36V2021.65V2025.06H15493.9V2028.47V2076.2V2079.61H15480.3V2106.88H15466.6V2110.29V2144.39V2147.8H15453V2175.07H15439.4C15439.4 2178.48 15439.4 2186.44 15439.4 2198.94V2202.35H15425.8V2229.62H15412.1V2243.26H15398.5V2270.53H15384.9V2284.17H15371.3V2297.81H15357.7V2311.44H15344V2325.08H15330.4V2338.72H15316.8V2352.36H15303.2V2365.99H15289.5V2379.63H15275.9V2393.27H15248.7V2406.91H15235.1V2420.54H15207.8V2434.18H15180.6V2447.82H15153.3V2461.46H15126.1V2475.09H15122.7H15088.6H15085.2V2488.73H15081.8H15047.8H15044.3V2502.37H15040.9H14966H14962.6V2516.01H14959.2H14788.9H14785.5V2502.37H14782.1H14707.2H14703.8V2488.73H14700.4H14666.3H14662.9V2475.09H14659.5H14625.5H14622.1V2461.46H14594.8V2447.82C14591.4 2447.82 14583.5 2447.82 14571 2447.82H14567.6V2434.18H14540.3V2420.54H14513.1V2406.91H14499.5V2393.27H14472.2V2379.63H14458.6V2365.99H14445V2352.36H14431.4V2338.72H14417.7V2325.08H14404.1V2311.44H14390.5V2297.81H14376.9V2284.17H14363.2V2256.9H14349.6V2243.26H14336V2215.98H14322.4V2202.35H14308.8V2175.07H14295.1V2147.8H14281.5V2144.39V2110.29V2106.88H14267.9V2103.47V2069.38V2065.97H14254.3V2062.56V2014.83V2011.42H14240.6V2008.01V1783V1779.59H14254.3V1776.18V1714.81V1711.4H14267.9V1707.99V1673.9V1670.49H14281.5V1643.21H14295.1V1639.8V1605.71V1602.3H14308.8V1588.66H14322.4V1561.39H14336V1534.11H14349.6V1520.48H14363.2V1493.2H14376.9V1479.56H14390.5V1465.93H14404.1V1452.29H14417.7V1438.65H14431.4V1425.01H14445V1411.38H14458.6V1397.74H14472.2V1384.1H14499.5V1370.46H14513.1V1356.83H14540.3V1343.19H14567.6V1329.55H14594.8V1315.91H14622.1V1302.28H14649.3V1288.64H14652.7H14700.4H14703.8V1275H14707.2H14768.5H14771.9V1261.37ZM14785.5 1506.84V1520.48H14737.8H14731V1534.11H14703.8V1547.75H14676.5V1561.39H14662.9V1575.03H14635.7V1588.66H14622.1V1602.3H14608.4V1615.94H14594.8V1629.57H14581.2V1656.85H14567.6V1670.49H14554V1697.76H14540.3V1704.58C14540.3 1713.67 14540.3 1720.49 14540.3 1725.04H14526.7V1731.86V1765.95H14513.1V1772.77V1820.5H14499.5V1827.32V1970.51H14513.1V1977.33V2011.42H14526.7V2018.24V2052.33H14540.3V2079.61H14554V2106.88H14567.6V2120.52H14581.2V2147.8H14594.8V2161.43H14608.4V2175.07H14622.1V2188.71H14635.7V2202.35H14662.9V2215.98H14669.7C14678.8 2215.98 14685.6 2215.98 14690.2 2215.98V2229.62H14703.8V2243.26H14710.6H14744.7V2256.9H14751.5H14785.5V2270.53H14792.3H14962.6V2256.9H14969.4H15003.5V2243.26H15030.7V2229.62H15058V2215.98H15085.2V2202.35H15098.8V2188.71H15126.1V2175.07H15139.7V2161.43H15153.3V2147.8H15166.9V2120.52H15180.6V2106.88H15194.2V2079.61H15207.8C15207.8 2065.97 15207.8 2056.88 15207.8 2052.33H15221.4V2025.06H15235.1V1977.33V1970.51H15248.7V1813.68V1806.86H15235.1V1772.77V1765.95H15221.4V1731.86V1725.04H15207.8V1697.76H15194.2V1670.49H15180.6V1656.85H15166.9V1629.57H15153.3V1615.94H15139.7V1602.3H15126.1V1588.66H15112.5V1575.03H15085.2V1561.39H15071.6V1547.75H15044.3V1534.11C15030.7 1534.11 15021.6 1534.11 15017.1 1534.11V1520.48H14969.4H14962.6V1506.84H14792.3H14785.5Z" fill="#182E47" stroke="#182E47"/>
<path d="M13707.4 1288.27H13710.9H13963.9C13967.3 1287.13 13968.4 1288.27 13967.3 1291.68V2485.69V2489.1H13963.9H13710.9C13707.4 2490.24 13706.3 2489.1 13707.4 2485.69V1291.68V1288.27Z" fill="#182E47" stroke="#182E47"/>
<path d="M13258.6 2202.35H13262H13296H13299.4V2215.96H13302.8H13336.8H13340.2V2229.56H13367.4V2243.17H13381V2256.78H13394.6V2270.39H13408.3V2297.61H13421.9V2301.01V2403.08V2406.48H13408.3C13408.3 2409.89 13408.3 2417.83 13408.3 2430.3V2433.7H13394.6V2460.92H13381V2474.53H13353.8V2488.14H13326.6V2501.75H13323.2H13221.1H13217.7V2488.14C13214.3 2488.14 13206.4 2488.14 13193.9 2488.14H13190.5V2474.53H13163.3V2460.92H13149.7V2433.7H13136.1V2430.3V2396.28V2392.88H13122.5V2389.47V2314.62V2311.22H13136.1C13136.1 2307.82 13136.1 2299.88 13136.1 2287.4V2284H13149.7V2256.78H13163.3V2243.17H13176.9V2229.56H13204.1V2215.96H13207.5H13255.2H13258.6V2202.35Z" fill="#D5652B" stroke="#182E47"/>
</svg>
