<svg width="15900" height="2101" viewBox="0 0 15900 2101" fill="none" xmlns="http://www.w3.org/2000/svg">
<path d="M13748.1 0.5H13752.4H13896.3H13900.6V17.4018H13934.4V34.3037H13951.4V51.2055H13968.3V68.1073H13985.3C13985.3 72.3328 13985.3 82.1922 13985.3 97.6855V101.911H14002.2V135.715H14019.1V139.94V232.9V237.126H14002.2V241.351V283.606V287.831H13985.3V304.733H13968.3V321.635H13951.4V338.537H13934.4V355.438H13900.6V372.34H13896.3H13752.4H13748.1V355.438H13714.3V338.537H13697.3V321.635H13680.4V304.733H13663.5V287.831H13646.5V283.606V241.351V237.126H13629.6V232.9V139.94V135.715H13646.5C13646.5 131.489 13646.5 121.63 13646.5 106.136V101.911H13663.5V68.1073H13680.4V51.2055H13697.3V34.3037H13714.3V17.4018H13748.1V0.5Z" fill="white" stroke="#182E47"/>
<path d="M7821.78 18.207H7826.02H8173.45H8177.69V22.4403V640.502C8176.27 644.735 8177.69 646.146 8181.92 644.735C8197.46 644.735 8207.34 644.735 8211.58 644.735V610.868H8245.48V593.935H8262.42V577.002H8279.37V560.069H8296.32V543.136H8330.22V526.203H8364.11V509.269H8398.01V492.336H8431.9V475.403H8436.14H8495.46H8499.69V458.47H8503.93H8597.14H8601.38V441.537H8605.62H8732.73H8736.96V458.47H8741.2H8834.41H8838.65V475.403H8842.89H8885.26H8889.49V492.336H8893.73H8936.1H8940.34V509.269H8974.23V526.203C8978.47 526.203 8988.36 526.203 9003.89 526.203H9008.13V543.136H9042.02V560.069H9058.97V577.002H9075.92V593.935H9109.82V610.868H9126.76V627.802H9143.71V644.735H9160.66V661.668H9177.61V695.534H9194.55V712.468H9211.5V729.401H9228.45C9228.45 733.634 9228.45 743.512 9228.45 759.034V763.267H9245.4V797.133H9262.35V814.067H9279.29V818.3V860.633V864.866H9296.24V869.099V911.432V915.666H9313.19V919.899V979.165V983.398H9330.14V987.632V1080.76V1085H9347.08V1089.23V2062.89V2067.12H9342.85H8995.42H8991.18V2062.89V1089.23V1085H8974.23V1080.76V1021.5V1017.26H8957.29V983.398H8940.34C8940.34 979.165 8940.34 969.288 8940.34 953.765V949.532H8923.39V915.666H8906.44V898.733H8889.49V881.799H8872.55V864.866H8855.6V847.933H8838.65V831H8821.7V814.067H8787.81V797.133H8783.57H8741.2H8736.96V780.2H8732.73H8673.41H8669.17V763.267H8664.94H8537.83H8533.59V780.2H8529.35H8470.04H8465.8V797.133H8461.56H8419.19H8414.95V814.067C8410.72 814.067 8400.83 814.067 8385.3 814.067H8381.06V831H8347.16V847.933H8330.22V864.866H8313.27V881.799H8296.32V898.733H8279.37V915.666H8262.42V949.532H8245.48V966.465H8228.53V1000.33H8211.58V1004.57V1046.9V1051.13H8194.63V1055.36V1114.63V1118.86H8177.69V1123.1V2062.89V2067.12H8173.45H7826.02H7821.78V2062.89V22.4403V18.207Z" fill="white" stroke="#182E47"/>
<path d="M11836.1 18.207H11840.4H12186.9H12191.1V22.4383V454.031V458.262H12208V475.187H12212.2H12558.7H12562.9V479.419V775.61V779.841H12558.7H12195.3H12191.1V784.072V1588.02V1592.25H12208V1596.48V1655.72V1659.95H12224.9V1693.8H12241.8V1710.73H12258.7V1727.65H12275.6V1744.58H12309.4V1761.5H12313.6H12508H12512.2V1744.58H12516.4H12575.6H12579.8V1748.81V2061.92V2066.16H12575.6H12533.3H12529.1V2083.08H12524.9H12415H12410.8V2100.01H12406.6H12313.6H12309.4V2083.08H12305.2H12212.2H12208V2066.16H12203.8H12144.6H12140.4V2049.23C12136.1 2049.23 12126.3 2049.23 12110.8 2049.23H12106.6V2032.31H12072.8V2015.38H12055.9V1998.45H12022.1V1981.53H12005.2V1964.6H11988.3V1947.68H11971.4V1930.75H11954.5V1913.83H11937.6V1879.98H11920.6V1863.05H11903.7V1858.82V1816.51V1812.28H11886.8V1778.43H11869.9V1774.2V1714.96V1710.73H11853V1706.5V1562.63V1558.4H11836.1V1554.17V22.4383V18.207Z" fill="white" stroke="#182E47"/>
<path d="M644.186 440.637H648.42H775.464H779.698V457.574H783.933H877.098H881.333V474.511H885.568H927.916H932.15V491.448H936.385H978.733H982.968V508.385H1016.85V525.322C1021.08 525.322 1030.96 525.322 1046.49 525.322H1050.72V542.259H1084.6V559.196H1101.54V576.133H1118.48V593.07H1152.36V610.007H1169.3V626.944H1186.24V660.818H1203.18V677.755H1207.41H1249.76H1253.99V660.818H1270.93V626.944H1304.81V610.007H1321.75V593.07H1338.69V576.133H1355.63V559.196H1389.51V542.259H1406.44V525.322H1440.32V508.385H1474.2V491.448H1478.44H1520.78H1525.02V474.511H1529.25H1588.54H1592.78V457.574H1597.01H1707.11H1711.35V440.637H1715.58H1825.69H1829.92V457.574H1834.16H1944.26H1948.5V474.511H1952.73H2012.02H2016.25V491.448H2050.13V508.385H2054.37H2096.71H2100.95V525.322H2134.83V542.259H2151.77V559.196H2185.64V576.133H2202.58V593.07H2219.52V610.007H2253.4V626.944H2270.34V643.881H2287.28V677.755H2304.22V694.692H2321.16V711.629H2338.1V745.503H2355.03V762.44H2371.97V796.314H2388.91V830.189H2405.85V834.423V876.765V881H2422.79V885.234V927.576V931.811H2439.73V936.045V995.325V999.559H2456.67V1003.79V2062.36V2066.59H2452.43H2105.18C2100.95 2068 2099.54 2066.59 2100.95 2062.36C2100.95 2046.83 2100.95 2036.95 2100.95 2032.72H2117.89V2015.78H2100.95V2011.55V1037.67V1033.43H2084.01V1029.2V986.856V982.622H2067.07C2067.07 978.388 2067.07 968.508 2067.07 952.982V948.748H2050.13V914.874H2033.19V897.937H2016.25V864.063H1999.31V847.126H1982.37V830.189H1948.5V813.251H1914.62V796.314H1880.74V779.377H1876.5H1800.28H1796.04V762.44H1791.81H1715.58H1711.35V779.377H1707.11H1630.89H1626.65V796.314H1592.78V813.251H1558.9V830.189H1541.96V847.126H1525.02V864.063H1508.08V881H1491.14V897.937H1474.2V914.874H1457.26V948.748H1440.32V982.622H1423.38V986.856V1029.2V1033.43H1406.44V1037.67V2062.36V2066.59H1402.21H1054.96H1050.72V2062.36V1071.54V1067.31H1033.78V1063.07V1003.79V999.559H1016.85V965.685H999.907V931.811H982.968V897.937H966.029V881H949.089V864.063H932.15V847.126H915.211V830.189H898.272V813.251H864.394V796.314H830.516V779.377H826.281H750.055H745.82V762.44H741.585H665.36H661.125V779.377H656.89H580.664H576.429V796.314C572.195 796.314 562.313 796.314 546.786 796.314H542.551V813.251H508.673V830.189H491.734V847.126H457.856V864.063H440.917V881H423.977V914.874H407.038V931.811H390.099V965.685H373.16V969.919V1012.26V1016.5H356.221V1020.73V1113.88V1118.12H339.282V1122.35V2062.36V2066.59H335.047H4.73477H0.5V2062.36V1003.79V999.559H17.4391V995.325V936.045V931.811H34.3782V927.576V885.234V881H51.3173V876.765V834.423V830.189H68.2564C68.2564 825.954 68.2564 816.074 68.2564 800.549V796.314H85.1955V762.44H102.135V745.503H119.074V711.629H136.013V694.692H152.952V677.755H169.891V660.818H186.83V643.881H203.769V626.944H220.708V610.007H237.647V593.07H254.586V576.133H271.526V559.196H305.404V542.259H339.282V525.322H373.16V508.385H407.038V491.448H411.273H453.621H457.856V474.511H462.09H521.377H525.612V457.574H529.847H639.951H644.186V440.637Z" fill="white" stroke="#182E47"/>
<path d="M3572.76 440.637H3576.99H3737.85H3742.08V457.569H3746.32H3839.44H3843.68V474.501H3847.91H3907.17H3911.41V491.434H3915.64H3957.97H3962.2V508.366H3966.44H4008.77H4013V525.298C4017.23 525.298 4027.11 525.298 4042.63 525.298H4046.86V542.231H4080.73V559.163H4097.66V576.095H4131.53V593.028H4148.46V609.96H4182.32V626.892H4199.26V643.825H4216.19V660.757H4233.12V677.689H4250.05V694.622H4266.99V711.554H4283.92V728.486H4300.85V762.351H4317.78V779.283H4334.71V813.148H4351.65V830.08H4368.58V863.945H4385.51V897.81H4402.44V931.674H4419.38V935.907V978.238V982.471H4436.31V986.704V1029.04V1033.27H4453.24V1037.5V1113.7V1117.93H4470.17V1122.16V1401.55V1405.78H4465.94H3187.55C3183.32 1404.37 3181.9 1405.78 3183.32 1410.01C3183.32 1425.53 3183.32 1435.41 3183.32 1439.64H3200.25V1473.51H3217.18V1477.74V1520.07V1524.31H3234.11V1541.24H3251.05V1575.1H3267.98V1592.04H3284.91V1608.97H3301.84V1642.83H3335.71V1659.76H3352.64V1676.7H3369.57V1693.63H3403.44V1710.56H3437.3V1727.49H3471.17V1744.43H3505.03V1761.36H3509.26H3602.39H3606.62V1778.29H3610.86H3703.99H3708.22V1761.36H3712.45H3805.58H3809.81V1744.43H3814.05H3873.31H3877.54V1727.49H3911.41V1710.56C3915.64 1710.56 3925.52 1710.56 3941.04 1710.56H3945.27V1693.63H3979.14V1676.7H3996.07V1659.76H4013V1642.83H4046.86V1625.9H4063.8V1608.97H4080.73V1575.1H4084.96H4127.29H4131.53V1592.04H4148.46V1608.97H4165.39V1625.9H4182.32V1642.83H4216.19V1659.76H4233.12V1676.7H4250.05V1693.63H4266.99V1710.56H4300.85V1727.49H4317.78V1744.43H4334.71V1761.36H4351.65V1795.22H4334.71V1812.16H4317.78V1829.09H4300.85V1862.95H4266.99V1879.88H4250.05V1896.82H4233.12V1913.75H4216.19V1930.68H4199.26V1947.61H4165.39V1964.55H4148.46V1981.48H4114.59V1998.41H4080.73V2015.34H4046.86V2032.28H4042.63H4000.3H3996.07V2049.21H3991.83H3949.5H3945.27V2066.14H3941.04H3898.71H3894.47V2083.07H3890.24H3780.18H3775.95V2100.01H3771.71H3543.13H3538.89V2083.07H3534.66H3458.47H3454.23V2066.14H3450H3390.74H3386.5V2049.21H3382.27H3339.94H3335.71V2032.28H3301.84V2015.34H3297.61H3255.28H3251.05V1998.41H3217.18V1981.48H3200.25V1964.55H3166.38V1947.61H3149.45V1930.68H3132.52V1913.75H3098.65V1896.82H3081.72V1879.88H3064.79V1862.95H3047.86V1846.02H3030.92V1829.09H3013.99V1812.16H2997.06V1795.22H2980.13V1761.36H2963.2V1744.43H2946.26V1710.56H2929.33V1693.63H2912.4V1659.76H2895.47V1625.9H2878.53V1621.67V1579.34V1575.1H2861.6V1570.87V1528.54V1524.31H2844.67V1520.07V1477.74V1473.51H2827.74V1469.28V1393.08V1388.85H2810.8V1384.61V1156.03V1151.79H2827.74V1147.56V1071.37V1067.13H2844.67V1062.9V1003.64V999.404H2861.6V995.171V952.84V948.607H2878.53V914.742H2895.47V880.877H2912.4C2912.4 876.644 2912.4 866.767 2912.4 851.246V847.013H2929.33V813.148H2946.26V796.216H2963.2V779.283H2980.13V745.419H2997.06V728.486H3013.99V711.554H3030.92V694.622H3047.86V677.689H3064.79V660.757H3081.72V643.825H3098.65V626.892H3115.59V609.96H3149.45V593.028H3166.38V576.095H3183.32V559.163H3217.18V542.231H3251.05V525.298H3284.91V508.366H3289.14H3331.47H3335.71V491.434H3339.94H3382.27H3386.5V474.501H3390.74H3450H3454.23V457.569H3458.47H3568.53H3572.76V440.637ZM3572.76 762.351V779.283H3496.56H3488.1V796.216H3445.77H3437.3V813.148H3403.44V830.08H3386.5V847.013H3352.64V863.945H3335.71V880.877H3318.77V897.81H3301.84V914.742H3284.91V931.674H3267.98V948.607H3251.05V982.471H3234.11V999.404H3217.18V1007.87V1050.2H3200.25V1084.07H3183.32V1101H3200.25V1117.93H3208.71H4097.66V1058.67V1050.2H4080.73V1016.34H4063.8V982.471H4046.86V948.607H4029.93V931.674H4013V914.742H3996.07V897.81H3979.14V880.877H3962.2V863.945H3945.27V847.013H3911.41V830.08H3894.47V813.148H3860.61V796.216H3818.28H3809.81V779.283H3750.55H3742.08V762.351H3581.23H3572.76Z" fill="white" stroke="#182E47"/>
<path d="M6654.32 440.637H6658.55H6836.3H6840.53V457.569H6844.76H6954.79H6959.03V474.501H6963.26H7022.51H7026.74V491.434H7030.97H7073.29H7077.53V508.366H7111.38V525.298H7145.24V542.231H7179.1V559.163C7183.33 559.163 7193.2 559.163 7208.72 559.163H7212.95V576.095H7246.81V593.028H7263.74V609.96H7280.67V626.892H7314.52V643.825H7331.45V660.757H7348.38V677.689H7365.31V694.622H7382.24V711.554H7399.16V728.486H7416.09V745.419H7433.02V762.351H7449.95V796.216H7433.02V813.148H7399.16V830.08H7382.24V847.013H7348.38V863.945H7331.45V880.877H7297.59V897.81H7280.67V914.742H7246.81V931.674H7229.88V948.607C7225.65 948.607 7215.77 948.607 7200.26 948.607H7196.02V965.539H7162.17V948.607H7145.24V931.674H7128.31V914.742H7111.38V897.81H7094.45V880.877H7077.53V863.945H7043.67V847.013H7026.74V830.08H6992.88V813.148H6959.03V796.216H6954.79H6912.47H6908.24V779.283H6904.01H6827.83H6823.6V762.351H6819.37H6692.41H6688.17V779.283H6683.94H6607.76H6603.53V796.216H6599.3H6556.98H6552.75V813.148C6548.51 813.148 6538.64 813.148 6523.12 813.148H6518.89V830.08H6485.03V847.013H6468.1V863.945H6434.25V880.877H6417.32V897.81H6400.39V914.742H6383.46V931.674H6366.53V948.607H6349.61V982.471H6332.68V1016.34H6315.75V1050.2H6298.82V1084.07H6281.89V1088.3V1147.56V1151.79H6264.96V1156.03V1384.61V1388.85H6281.89V1393.08V1435.41V1439.64H6298.82V1443.88V1486.21V1490.44H6315.75C6315.75 1494.67 6315.75 1504.55 6315.75 1520.07V1524.31H6332.68V1558.17H6349.61V1575.1H6366.53V1608.97H6383.46V1625.9H6400.39V1642.83H6417.32V1659.76H6451.18V1676.7H6468.1V1693.63H6485.03V1710.56H6518.89V1727.49H6523.12H6565.44H6569.67V1744.43H6573.91H6616.23H6620.46V1761.36H6624.69H6700.87H6705.1V1778.29H6709.33H6819.37H6823.6V1761.36H6827.83H6904.01H6908.24V1744.43H6912.47H6954.79H6959.03V1727.49C6963.26 1727.49 6973.13 1727.49 6988.65 1727.49H6992.88V1710.56H7026.74V1693.63H7043.67V1676.7H7077.53V1659.76H7094.45V1642.83H7111.38V1625.9H7128.31V1608.97H7145.24V1592.04H7162.17V1575.1H7166.4H7208.72H7212.95V1592.04H7229.88V1608.97H7263.74V1625.9H7280.67V1642.83H7314.52V1659.76H7331.45V1676.7H7365.31V1693.63H7382.24V1710.56H7416.09V1727.49H7433.02V1744.43H7449.95V1778.29H7433.02V1795.22H7416.09V1812.16H7399.16V1829.09H7382.24V1846.02H7365.31V1862.95H7348.38V1879.88H7331.45V1896.82H7314.52V1913.75H7297.59V1930.68H7263.74V1947.61H7246.81V1964.55H7212.95V1981.48H7196.02V1998.41H7162.17V2015.34H7128.31V2032.28H7124.08H7081.76H7077.53V2049.21H7073.29H7030.97H7026.74V2066.14H7022.51H6963.26H6959.03V2083.07H6954.79H6861.69H6857.46V2100.01H6853.22H6658.55H6654.32V2083.07H6650.08H6540.05H6535.82V2066.14H6531.59H6472.34H6468.1V2049.21H6434.25V2032.28H6430.02H6387.69H6383.46V2015.34H6349.61V1998.41C6345.37 1998.41 6335.5 1998.41 6319.98 1998.41H6315.75V1981.48H6281.89V1964.55H6264.96V1947.61H6231.11V1930.68H6214.18V1913.75H6197.25V1896.82H6180.32V1879.88H6163.39V1862.95H6146.47V1846.02H6129.54V1829.09H6112.61V1812.16H6095.68V1795.22H6078.75V1778.29H6061.82V1761.36H6044.9V1727.49H6027.97V1710.56H6011.04V1676.7H5994.11V1642.83H5977.18V1638.6V1596.27V1592.04H5960.25V1558.17H5943.33V1553.94V1511.61V1507.37H5926.4V1503.14V1426.95V1422.71H5909.47V1418.48V1122.16V1117.93H5926.4V1113.7V1037.5V1033.27H5943.33V1029.04V986.704V982.471H5960.25V948.607H5977.18V944.374V902.043V897.81H5994.11C5994.11 893.577 5994.11 883.699 5994.11 868.178V863.945H6011.04V830.08H6027.97V813.148H6044.9V779.283H6061.82V762.351H6078.75V745.419H6095.68V728.486H6112.61V711.554H6129.54V694.622H6146.47V677.689H6163.39V660.757H6180.32V643.825H6197.25V626.892H6214.18V609.96H6231.11V593.028H6264.96V576.095H6281.89V559.163H6315.75V542.231H6349.61V525.298H6383.46V508.366H6387.69H6430.02H6434.25V491.434H6438.48H6480.8H6485.03V474.501H6489.27H6531.59H6535.82V457.569H6540.05H6650.08H6654.32V440.637Z" fill="white" stroke="#182E47"/>
<path d="M10447.7 440.637H10451.9H10595.8H10600V457.569H10604.2H10697.3H10701.6V474.501H10705.8H10748.1H10752.3V491.434H10756.6H10798.9H10803.1V508.366H10837V525.298C10841.2 525.298 10851.1 525.298 10866.6 525.298H10870.8V542.231H10904.7V559.163H10921.6V576.095H10938.5V593.028H10972.4V609.96H10989.3V626.892H11006.2V643.825H11023.1V660.757H11040.1V656.524V478.734V474.501H11044.3H11391.3H11395.5V478.734V2061.91C11396.9 2066.14 11395.5 2067.55 11391.3 2066.14H11044.3H11040.1V2061.91V1884.12C11041.5 1879.88 11040.1 1878.47 11035.8 1879.88C11020.3 1879.88 11010.4 1879.88 11006.2 1879.88V1913.75H10989.3V1930.68H10972.4V1947.61H10955.4V1964.55H10921.6V1981.48H10904.7V1998.41H10870.8V2015.34H10853.9V2032.28H10849.7H10807.3H10803.1V2049.21H10769.3V2066.14H10765H10722.7H10718.5V2083.07H10714.3H10621.2H10616.9V2100.01H10612.7H10418.1H10413.8V2083.07H10409.6H10316.5H10312.3V2066.14H10308.1H10248.8H10244.6V2049.21H10210.7V2032.28H10206.5H10164.2H10160V2015.34C10155.7 2015.34 10145.9 2015.34 10130.3 2015.34H10126.1V1998.41H10092.3V1981.48H10075.3V1964.55H10041.5V1947.61H10024.6V1930.68H9990.71V1913.75H9973.78V1896.82H9956.86V1879.88H9939.93V1862.95H9923.01V1846.02H9906.08V1829.09H9889.16V1812.16H9872.23V1778.29H9855.31V1761.36H9838.38V1744.43H9821.46V1710.56H9804.53V1676.7H9787.6V1642.83H9770.68V1608.97H9753.75V1575.1H9736.83V1570.87V1511.61V1507.37H9719.9V1503.14V1443.88V1439.64H9702.98V1435.41V1308.42V1304.19H9686.05V1299.95V1240.69V1236.46H9702.98V1232.22V1105.23V1101H9719.9V1096.76V1037.5V1033.27H9736.83V1029.04V969.772V965.539H9753.75V931.674H9770.68V897.81H9787.6V863.945H9804.53C9804.53 859.712 9804.53 849.835 9804.53 834.313V830.08H9821.46V796.216H9838.38V779.283H9855.31V762.351H9872.23V728.486H9889.16V711.554H9906.08V694.622H9923.01V677.689H9939.93V660.757H9956.86V643.825H9973.78V626.892H9990.71V609.96H10024.6V593.028H10041.5V576.095H10075.3V559.163H10092.3V542.231H10126.1V525.298H10160V508.366H10164.2H10206.5H10210.7V491.434H10215H10257.3H10261.5V474.501H10265.7H10308.1H10312.3V457.569H10316.5H10443.5H10447.7V440.637ZM10481.5 762.351V779.283H10405.4H10396.9V796.216H10354.6H10346.1V813.148H10312.3V830.08H10278.4V847.013H10261.5V863.945H10227.7V880.877H10210.7V897.81H10193.8V914.742H10176.9V931.674H10160V965.539H10143V982.471H10126.1V1016.34H10109.2V1024.8C10109.2 1036.09 10109.2 1044.56 10109.2 1050.2H10092.3V1084.07H10075.3V1092.53V1134.86H10058.4V1143.33V1388.85H10075.3V1397.31V1456.58H10092.3V1490.44H10109.2V1524.31H10126.1V1558.17H10143V1575.1H10160V1592.04H10176.9V1608.97H10193.8V1625.9H10210.7V1642.83H10227.7V1659.76H10244.6V1676.7H10261.5V1693.63H10295.4V1710.56H10312.3V1727.49H10320.7H10363.1V1744.43H10396.9V1761.36H10405.4H10498.5V1778.29H10506.9H10600V1761.36H10608.5H10684.6V1744.43H10693.1H10735.4V1727.49H10769.3V1710.56H10803.1V1693.63H10837V1676.7H10853.9V1659.76H10870.8V1642.83H10887.7V1625.9H10904.7V1608.97H10921.6V1592.04H10938.5V1575.1H10955.4V1558.17H10972.4V1524.31H10989.3C10989.3 1507.37 10989.3 1496.09 10989.3 1490.44H11006.2V1448.11V1439.64H11023.1V1397.31V1388.85H11040.1V1160.26V1151.79H11023.1V1092.53V1084.07H11006.2V1050.2H10989.3V1016.34H10972.4V982.471H10955.4V965.539H10938.5V948.607H10921.6V914.742H10904.7V897.81H10870.8V880.877H10853.9V863.945H10837V847.013H10820V830.08H10786.2V813.148C10769.3 813.148 10758 813.148 10752.3 813.148V796.216H10710H10701.6V779.283H10625.4H10616.9V762.351H10490H10481.5Z" fill="white" stroke="#182E47"/>
<path d="M5367.75 458.344H5371.99H5651.3H5655.54V475.278H5689.39V479.512V792.8V797.034H5655.54V780.099H5651.3H5439.7H5435.47V797.034H5431.23H5388.91H5384.68V813.968H5350.82V830.903H5333.9V847.837H5300.04V864.772H5283.11V881.706H5266.18V898.641H5249.25V932.51H5232.33V949.444H5215.4V983.313H5198.47V987.547V1046.82V1051.05H5181.54V1055.29V1148.42V1152.66H5164.61V1156.89V2062.89V2067.12H5160.38H4813.35H4809.12V2033.25H4826.05V2029.02V1935.88V1931.65H4809.12V1927.41V1139.96V1135.72H4826.05V1131.49V987.547V983.313H4842.97V979.08V936.744V932.51H4859.9V928.276V885.94V881.706H4876.83V877.473V835.137V830.903H4893.76V813.968H4910.69C4910.69 809.735 4910.69 799.856 4910.69 784.333V780.099H4927.62V746.23H4944.54V729.296H4961.47V712.361H4978.4V678.492H4995.33V661.558H5012.26V644.623H5029.19V627.689H5046.11V610.754H5063.04V593.82H5096.9V576.885H5113.83V559.951H5147.68V543.016H5181.54V526.082H5215.4V509.147H5249.25V492.213H5253.49H5295.81H5300.04V475.278H5304.27H5363.52H5367.75V458.344Z" fill="white" stroke="#182E47"/>
<path d="M14985 541.818H14989.2H15234.5H15238.8V558.755H15243H15319.1H15323.4V575.692H15327.6H15386.8H15391V592.629H15424.9V609.566H15429.1H15471.4H15475.6V626.502H15509.5V643.439H15526.4V660.376C15530.6 660.376 15540.5 660.376 15556 660.376H15560.2V677.313H15594V694.25H15611V711.187H15627.9V728.123H15644.8V745.06H15661.7V761.997H15678.6V778.934H15695.6V795.871H15712.5V812.807H15729.4V829.744H15746.3V846.681H15763.2V880.555H15780.1V897.492H15797.1V931.365H15814V965.239H15830.9V999.113H15847.8V1032.99H15864.7V1037.22V1096.5V1100.73H15881.6V1104.97V1164.25V1168.48H15898.6V1172.71V1486.05V1490.28H15881.6V1494.51V1553.79V1558.03H15864.7V1591.9H15847.8V1596.14V1638.48V1642.71H15830.9V1676.59H15814C15814 1680.82 15814 1690.7 15814 1706.22V1710.46H15797.1V1744.33H15780.1V1761.27H15763.2V1795.14H15746.3V1812.08H15729.4V1829.02H15712.5V1845.95H15695.6V1862.89H15678.6V1879.83H15661.7V1896.76H15644.8V1913.7H15627.9V1930.64H15611V1947.57H15577.1V1964.51H15560.2V1981.45H15526.4V1998.39H15492.5V2015.32H15458.7V2032.26H15424.9V2049.2H15420.6H15378.3H15374.1V2066.13H15369.9H15327.6H15323.4V2083.07H15319.1H15226.1H15221.9V2100.01H15217.6H15006.1H15001.9V2083.07H14997.7H14904.6H14900.4V2066.13H14896.2H14853.9H14849.7V2049.2H14845.4H14803.1H14798.9V2032.26H14765.1V2015.32C14760.8 2015.32 14751 2015.32 14735.5 2015.32H14731.2V1998.39H14697.4V1981.45H14663.6V1964.51H14646.6V1947.57H14612.8V1930.64H14595.9V1913.7H14579V1896.76H14562.1V1879.83H14545.1V1862.89H14528.2V1845.95H14511.3V1829.02H14494.4V1812.08H14477.5V1778.21H14460.5V1761.27H14443.6V1727.4H14426.7V1710.46H14409.8V1676.59H14392.9V1642.71H14376V1638.48V1596.14V1591.9H14359V1587.67V1545.33V1541.09H14342.1V1536.86V1477.58V1473.34H14325.2V1469.11V1189.65V1185.42H14342.1V1181.18V1104.97V1100.73H14359V1096.5V1054.16V1049.92H14376V1016.05H14392.9V1011.82V969.473V965.239H14409.8V948.302H14426.7V914.428H14443.6V880.555H14460.5V863.618H14477.5V829.744H14494.4V812.807H14511.3V795.871H14528.2V778.934H14545.1V761.997H14562.1V745.06H14579V728.123H14595.9V711.187H14612.8V694.25H14646.6V677.313H14663.6V660.376H14697.4V643.439H14731.2V626.502H14765.1V609.566H14798.9V592.629H14832.7V575.692H14837H14896.2H14900.4V558.755H14904.6H14980.8H14985V541.818ZM15001.9 846.681V863.618H14942.7H14934.2V880.555H14900.4V897.492H14866.6V914.428H14849.7V931.365H14815.8V948.302H14798.9V965.239H14782V982.176H14765.1V999.113H14748.2V1032.99H14731.2V1049.92H14714.3V1083.8H14697.4V1092.27C14697.4 1103.56 14697.4 1112.02 14697.4 1117.67H14680.5V1126.14V1168.48H14663.6V1176.95V1236.23H14646.6V1244.7V1422.53H14663.6V1431V1473.34H14680.5V1481.81V1524.15H14697.4V1558.03H14714.3V1591.9H14731.2V1608.84H14748.2V1642.71H14765.1V1659.65H14782V1676.59H14798.9V1693.52H14815.8V1710.46H14849.7V1727.4H14858.1C14869.4 1727.4 14877.9 1727.4 14883.5 1727.4V1744.33H14900.4V1761.27H14908.9H14951.2V1778.21H14959.6H15001.9V1795.14H15010.4H15221.9V1778.21H15230.3H15272.6V1761.27H15306.4V1744.33H15340.3V1727.4H15374.1V1710.46H15391V1693.52H15424.9V1676.59H15441.8V1659.65H15458.7V1642.71H15475.6V1608.84H15492.5V1591.9H15509.5V1558.03H15526.4C15526.4 1541.09 15526.4 1529.8 15526.4 1524.15H15543.3V1490.28H15560.2V1431V1422.53H15577.1V1227.76V1219.29H15560.2V1176.95V1168.48H15543.3V1126.14V1117.67H15526.4V1083.8H15509.5V1049.92H15492.5V1032.99H15475.6V999.113H15458.7V982.176H15441.8V965.239H15424.9V948.302H15407.9V931.365H15374.1V914.428H15357.2V897.492H15323.4V880.555C15306.4 880.555 15295.2 880.555 15289.5 880.555V863.618H15230.3H15221.9V846.681H15010.4H15001.9Z" fill="white" stroke="#182E47"/>
<path d="M13663 575.233H13667.2H13981.5C13985.7 573.82 13987.1 575.233 13985.7 579.47V2062.36V2066.59H13981.5H13667.2C13663 2068.01 13661.6 2066.59 13663 2062.36V579.47V575.233Z" fill="white" stroke="#182E47"/>
<path d="M13105.5 1710.46H13109.7H13152H13156.2V1727.36H13160.4H13202.7H13206.9V1744.26H13240.7V1761.16H13257.6V1778.07H13274.5V1794.97H13291.4V1828.77H13308.3V1833V1959.76V1963.99H13291.4C13291.4 1968.21 13291.4 1978.07 13291.4 1993.56V1997.79H13274.5V2031.59H13257.6V2048.5H13223.8V2065.4H13190V2082.3H13185.8H13059H13054.8V2065.4C13050.6 2065.4 13040.7 2065.4 13025.2 2065.4H13021V2048.5H12987.2V2031.59H12970.3V1997.79H12953.4V1993.56V1951.31V1947.08H12936.5V1942.86V1849.9V1845.67H12953.4C12953.4 1841.45 12953.4 1831.59 12953.4 1816.1V1811.87H12970.3V1778.07H12987.2V1761.16H13004.1V1744.26H13037.9V1727.36H13042.1H13101.3H13105.5V1710.46Z" fill="#D5652B" stroke="#182E47"/>
</svg>
